<svg width="1645" height="3001" viewBox="0 0 1645 3001" fill="none" xmlns="http://www.w3.org/2000/svg">
<path fill-rule="evenodd" clip-rule="evenodd" d="M526.193 1498.06C525.259 1502.69 523.851 1507.71 522.385 1512.2C529.689 1519.23 540.027 1528.66 547.445 1535.46C540.107 1490.14 562.433 1448.31 576.098 1405.43C570.944 1398.82 552.994 1392.06 553.572 1384.73C554.957 1357.59 557.001 1327.29 559.948 1293.3C569.925 1187.17 579.852 1076.49 556.304 970.03C554.695 958.459 552.254 946.291 536.734 946.022C490.895 1128.46 528.039 1312.14 527.028 1495.73L528.362 1496.93L526.193 1498.06ZM457.55 2992.84C419.885 2992.85 385.261 2986.01 351.741 2972.14C342.068 2968.74 330.052 2964.51 328.376 2957.67C325.62 2938.93 327.528 2920.51 329.547 2901.01C332.74 2867.56 332.422 2841.56 341.448 2805.55C351.108 2772.1 359.341 2745.97 349.914 2711.38C349.158 2701.09 357.21 2690.61 362.529 2680.98C370.059 2666.93 373.88 2652.3 379.861 2637.88C368.111 2635.83 355.91 2633.01 344.629 2629.52L342.735 2636.34C342.319 2637.84 341.172 2638.6 339.328 2638.6C338.187 2638.6 335.268 2638.05 334.842 2635.61C336.612 2609.28 339.176 2583.07 341.869 2556.32C369.831 2298.59 412.172 2086.13 483.276 1874.23C500.354 1824.61 517.799 1772.95 517.923 1719.03C508.214 1716.95 497.401 1715.75 487.505 1717.12C416.996 1700.78 430.934 1551.63 433.739 1507C428.766 1505.5 423.201 1503.39 419.075 1500.56L417.406 1501.37C347.392 1327.61 376.144 1040.32 392.159 847.186C402.667 777.763 387.887 652.359 449.442 618.053C499.142 600.453 548.622 590.561 600.557 578.954C610.175 573.433 622.045 570.282 632.777 566.709L627.233 558.915C619.962 548.67 620.929 528.576 630.44 521.515C636.285 521.839 644.498 527.71 650.084 530.467C658.119 513.853 665.557 496.475 670.895 476.512L672.814 477.199C678.431 420.733 751.648 410.878 792.93 429.747C837.995 454.485 814.524 510.447 835.013 550.845L842.439 540.946C853.907 540.734 878.164 555.768 884.005 561.411C888.187 563.36 885.162 576.479 885.771 581.756C946.226 595.444 1028.98 599.202 1048.19 667.056C1080.16 794.649 1075.67 925.455 1111.94 1052.6C1149.92 1155.65 1205.69 1281.76 1206.16 1376.14C1207.25 1393.83 1209.63 1493.88 1194.98 1489.86L1185.32 1499.5C1198.49 1520.51 1188.03 1551.96 1182.99 1576.84C1170.56 1629.63 1146.28 1686.52 1094.42 1661.22C1038.63 1969.23 898.433 2279.94 946.26 2597.64C946.833 2599.49 945.672 2601.53 943.681 2600.72L941.326 2599.63C935.243 2601.51 927.524 2602.17 921.171 2603.59C926.577 2623.85 929.476 2643.85 932.282 2666.26C935.685 2668.29 934.097 2673.65 934.27 2676.9C985.022 2674.47 1013.49 2727.61 1049.88 2756.84C1073.91 2778.28 1101.28 2798.69 1131.23 2817.51C1155.98 2831.57 1176.87 2847.67 1173.11 2874.24C1173.46 2874.19 1181.1 2873.01 1181.48 2872.98C1192.99 2911.29 1155.19 2919.21 1116.25 2923.82C1021.12 2933.39 939.789 2912.25 829.642 2872.19C816.133 2873.8 805.605 2853.71 803.808 2840.09C802.029 2830.97 807.086 2821.69 803.226 2811.86C789.944 2783.64 783.03 2708.93 801.756 2675.42C808.329 2667.82 816.759 2660.81 815.666 2647.7C815.36 2634.56 814.124 2621.44 815.236 2608.54C792.728 2606.36 770.447 2601.51 750.811 2593.65C747.335 2594.99 743.387 2593.34 743.144 2588.98C739.376 2528.93 734.866 2463.31 733.891 2401.83C729.366 2268.03 759.965 2137.47 783.383 2007.7C785.008 1966.07 792.693 1925.86 795.115 1884.21C797.721 1844.71 798.181 1806.04 800.448 1766.6L786.934 1763.66C674.738 2052.91 586.877 2342.4 525.381 2625.66C526.772 2626.85 530.725 2628.18 530.557 2630.6C530.511 2631.89 530.542 2631.97 529.66 2632.1C514.803 2635.09 500.1 2637.28 485.376 2638.98C489.527 2674.33 467.383 2715.18 486.981 2748.29C492.186 2756.27 492.41 2757.93 489.221 2763.42C517.773 2816.56 535.468 2860.78 546.936 2908.29L554.325 2902.04C565.037 2909.82 565.259 2924.52 565.493 2940.05C564.731 2949.1 569.149 2958.58 562.381 2966.2C546.088 2985.24 489.304 2992.73 457.55 2992.84V2992.84Z" fill="white"/>
<path fill-rule="evenodd" clip-rule="evenodd" d="M1184.56 1524.45C1173.36 1562.11 1163.08 1617.86 1134.57 1645.58C1125.37 1652.91 1114.15 1649.7 1103.61 1647.88C1110.84 1604.08 1116.14 1559.9 1120.75 1515.73C1143.2 1511.12 1164.84 1503.15 1184.94 1492.15C1190.38 1501.27 1186.98 1515.14 1184.56 1524.45V1524.45ZM1098.17 1557.23C1060.27 1903.59 884.729 2235.61 933.967 2589.71C874.923 2599.79 814.864 2603.99 755.097 2598.78C762.294 2489.4 739.036 2369.65 755.757 2256.86C766.446 2151.12 794.296 2047.86 803.886 1942C808.151 1883.49 813.466 1822.39 799.576 1764.91C799.466 1764.62 799.346 1764.33 799.226 1764.04C808.739 1755.22 817.73 1745.58 825.657 1735.25C832.417 1726.32 817.696 1714.42 810.196 1722.08C820.542 1694.75 830.486 1667.29 840.127 1639.71C691 1940.66 595.475 2291.18 515.046 2623.81C460.951 2636.13 405.268 2635.83 350.146 2634.35C365.245 2384 415.398 2137.34 483.428 1896.33C498.649 1840.61 517.431 1783.93 514.076 1725.4C531.834 1728.17 556.126 1718.27 565.696 1703.08C574.406 1709.85 585.086 1701.54 589.676 1693.65C600.277 1672.96 594.423 1647.69 588.277 1626.48C609.93 1629.89 637.041 1609.81 622.226 1587.37C599.335 1567.29 573.209 1550.18 550.766 1529.02C548.846 1489.34 564.222 1452.31 578.186 1415.08C648.745 1464.81 717.923 1518.32 792.015 1562.22C804.755 1563.51 815.044 1553.87 824.606 1546.83C851.896 1526.58 879.436 1506.6 906.326 1485.8C909.276 1486.89 912.667 1486.62 915.177 1484.94C932.349 1503.33 950.498 1520.32 967.487 1538.8C977.692 1548.23 985.063 1562.96 999.305 1566.57C1005.97 1567.79 1010.21 1565.03 1014.48 1560.41C1040.39 1532.99 1068.27 1507.53 1095.12 1481.05C1097.24 1483.69 1101.7 1484.88 1104.97 1482.78C1104.63 1507.64 1101.08 1532.52 1098.17 1557.23V1557.23ZM919.276 2674.15C894.503 2681.3 890.578 2720 861.407 2716.22C842.518 2712.24 827.285 2695.88 822.446 2677.48C823.896 2676.56 824.876 2674.95 824.726 2672.63C823.486 2653.76 822.236 2634.89 820.996 2616.02C853.818 2617.84 886.775 2615.25 919.376 2610.75C918.196 2619.71 917.726 2628.75 917.466 2637.88C917.932 2649.49 914.532 2663.5 919.276 2674.15V2674.15ZM809.846 2665.66C810.656 2664.49 811.396 2663.28 812.026 2661.98C812.126 2663.48 812.226 2664.98 812.316 2666.47C811.536 2666 810.706 2665.74 809.846 2665.66V2665.66ZM975.466 2696.2C992.306 2707.67 1005.43 2724.01 1019.77 2738.28C1050.27 2768.64 1084.09 2795.68 1120.3 2818.92C1139.15 2830.64 1179 2848.37 1163.22 2875.88C1151.45 2893.21 1120.61 2885.13 1115.75 2894.85C1048.64 2897.61 983.001 2879.26 919.216 2860.47C886.836 2849.89 852.957 2843.72 821.566 2830.27C791.479 2803.91 791.384 2745.95 795.524 2708.78C797.167 2699.99 799.608 2663.99 812.456 2668.52C812.477 2672.12 812.847 2676.97 816.736 2677.98C816.796 2678.26 816.846 2678.55 816.916 2678.83C816.176 2678.59 815.196 2679.13 815.556 2680.02C825.235 2708.84 857.145 2741.29 888.297 2721.09C902.136 2711.35 908.196 2692.5 924.696 2686.39C941.986 2679.98 960.916 2686.29 975.466 2696.2V2696.2ZM1178.74 2874.04C1179.17 2874.25 1179.62 2874.35 1180.08 2874.36C1181.4 2877.74 1180.75 2891.51 1180.5 2893.88C1176.43 2914.6 1143.8 2918.04 1126.51 2921.17C1065.73 2930.75 1003.92 2924.06 944.637 2908.78C915.697 2901.61 886.917 2893.32 858.827 2883.33C833.869 2875.74 802.997 2863.12 806.097 2831.46C819.998 2850.24 864.493 2855.8 886.816 2863.56C956.968 2884.86 1028.14 2907.79 1102.18 2908.52C1113.39 2908.04 1128.89 2911.17 1137.31 2902.72C1155.15 2900.17 1173.66 2890.29 1178.74 2874.04V2874.04ZM477.856 2669.88C472.113 2688.03 465.506 2706.67 465.326 2725.87C431.875 2705.99 389.912 2725.29 362.186 2747.06C364.124 2733.47 355.744 2720.67 358.024 2707.31C366.494 2687.16 377.845 2666.73 373.816 2643.95C410.937 2650.29 448.648 2649.9 485.896 2646.01C482.976 2653.87 480.456 2661.87 477.856 2669.88V2669.88ZM490.656 2780.31C497.252 2793.25 501.873 2810.41 514.516 2818.57C521.571 2844.66 529.505 2870.51 535.637 2896.83C538.074 2909.36 541.76 2922.33 539.936 2935.23C537.04 2936.03 535.012 2936.65 533.406 2938.74C472.078 2951.81 404.664 2953.87 347.976 2923.51C328.96 2880.99 343.886 2831.2 350.363 2787.16C350.754 2772.74 360.388 2767.69 361.536 2753.94C391.939 2736.44 439.295 2713.49 468.126 2744.88C472.129 2753.79 474.823 2766.08 485.116 2769.45C487.036 2773.05 488.866 2776.68 490.656 2780.31V2780.31ZM540.906 2935.27C540.896 2935.29 540.886 2935.31 540.856 2935.34C540.766 2935.33 540.766 2935.3 540.906 2935.27V2935.27ZM559.977 2943.19C559.827 2940.52 558.496 2937.86 556.316 2936.28C557.346 2926.45 555.396 2916.28 553.316 2906.68C563.616 2917.9 559.22 2935.66 560.917 2949.63C560.781 2955.2 563.482 2962.3 557.006 2965.17C536.786 2979.15 512.276 2985.67 488.116 2988.48C435.407 2994.52 380.61 2984.83 333.516 2960.32C327.122 2951.64 329.334 2929.36 328.596 2918.14C332.94 2954.16 420.765 2964.12 450.636 2964.42C467.251 2964.53 559.802 2961.09 559.977 2943.19V2943.19ZM504.286 1702.89C497.276 1702.19 490.306 1702.68 483.366 1703.68C442.29 1675.77 435.814 1561.28 429.366 1512.95C458.759 1520.46 489.893 1518.44 518.426 1508.55C518.964 1513.82 524.977 1516.54 528.636 1512.98C547.985 1547.43 576.938 1575.01 606.806 1599.66C606.456 1598.51 606.206 1600.62 606.646 1599.82C602.842 1608.54 588.873 1604.02 582.266 1610.09C578.026 1613.25 577.136 1618.78 579.836 1622.47C572.689 1642.22 584.051 1666.34 573.356 1685.07C570.953 1687.86 567.825 1689.87 565.756 1693C551.521 1683.25 538.551 1703.88 524.136 1704.78C524.236 1704.78 524.336 1704.78 524.446 1704.77C522.227 1705.02 518.666 1704.9 516.716 1704.62C512.581 1703.98 508.456 1703.31 504.286 1702.89V1702.89ZM530.766 1012.78C533.786 993.093 537.306 973.522 541.876 954.142C547.386 955.102 548.616 967.723 549.316 971.442C572.905 1078.18 562.691 1188.03 552.585 1295.76C550.136 1324.65 548.116 1353.59 546.536 1382.55C544.496 1395.87 559.812 1400.39 567.986 1407.68C556.616 1444.29 536.996 1479.71 539.316 1518.7C536.266 1515.9 533.246 1513.07 530.246 1510.22C531.006 1507.77 531.656 1505.32 532.206 1502.85C535.939 1500.91 537.125 1495.54 533.926 1492.71C535.155 1333.06 505.197 1172.05 530.766 1012.78V1012.78ZM824.302 711.273C829.972 701.182 844.98 714.296 835.551 721.613C828.987 726.929 819.89 718.199 824.302 711.273V711.273ZM852.054 828.656C858.109 820.78 870.255 829.9 864.964 838.042C858.78 850.883 846.402 838.199 852.054 828.656V828.656ZM871.493 931.533C883.622 931.567 880.843 952.123 869.392 949.304C859.643 946.996 861.249 931.343 871.493 931.533V931.533ZM881.432 1055.48C884.241 1045.97 898.604 1048.48 898.502 1058.26C898.138 1071.47 878.587 1067.48 881.432 1055.48V1055.48ZM904.972 1175C908.964 1163.05 924.307 1169.24 923.021 1180.81C924.694 1187.5 911.735 1200.99 909.112 1190.06C905.612 1185.84 903.962 1180.42 904.972 1175V1175ZM929.073 1312.85C929.103 1312.81 929.133 1312.77 929.163 1312.73C937.697 1316.75 930.311 1335.04 922.083 1328.32C914.1 1323.45 919.625 1308 929.073 1312.85V1312.85ZM940.303 1424.76C950.259 1434.55 934.862 1450.05 925.042 1440.02C915.074 1430.25 930.462 1414.76 940.303 1424.76V1424.76ZM1186.87 1491.1C1187 1491.39 1187.14 1491.68 1187.3 1491.95C1187.04 1491.73 1186.78 1491.51 1186.52 1491.29C1186.63 1491.23 1186.75 1491.17 1186.87 1491.1V1491.1ZM1194.88 1263.59C1178.63 1199.56 1152.48 1138.61 1127.03 1077.85C1099.52 997.181 1091.45 911.737 1081.63 827.553C1076.22 780.057 1070.38 732.624 1059.44 686.022C1050.14 599.15 961.913 589.679 892.726 576.213C892.823 568.795 895.104 560.357 887.665 555.613C880.836 548.676 844.377 527.117 837.176 536.243C834.348 529.365 832.965 521.733 831.626 514.392C830.726 511.495 830.354 501.503 827.207 501.582C826.533 521.141 818.236 549.773 834.887 564.463C824.893 579.696 816.56 598.153 803.387 610.283C803.397 610.272 803.407 610.263 803.417 610.253C802.757 610.682 802.086 611.072 801.396 611.442C801.556 611.312 800.607 611.663 799.827 611.913C798.037 612.254 795.075 611.599 793.246 610.772H793.267C747.91 584.992 703.524 557.383 659.616 529.102C665.892 519.818 674.016 474.309 666.228 468.002C660.782 485.955 655.111 503.968 646.846 520.862C639.686 516.954 628.1 509.926 622.066 519.112C614.456 531.876 612.284 550.382 621.417 563.072C582.165 578.54 539.834 583.956 499.307 596.044C481.647 600.572 462.946 603.942 446.376 611.793C396.999 639.189 396.958 706.687 391.543 756.401C377.646 998.388 333.571 1248.55 402.594 1485.93C405.246 1493.22 409.166 1500.22 412.216 1507.39C413.426 1510.23 416.566 1510.14 418.636 1508.6C420.976 1509.99 423.546 1511.1 426.236 1512C421.716 1573.72 415.593 1686.47 475.163 1723.27C479.806 1725.46 483.966 1724.7 488.296 1724.16C495.249 1723.26 503.483 1723.56 510.676 1724.91C501.988 1839.4 444.344 1944 422.023 2056.18C374.179 2245.87 343.27 2439.76 327.716 2634.73C327.157 2646.82 346.094 2650.17 349.366 2638.31C356.206 2640.29 363.146 2641.94 370.176 2643.28C366.505 2652.84 363.471 2662.5 359.236 2671.82C354.616 2682.35 346.206 2692.05 343.566 2703.32C340.406 2721.38 352.163 2738.28 345.644 2756.35C344.408 2776.55 335.225 2795.56 332.036 2815.57C327.056 2840.36 323.276 2866.04 324.576 2891.38C319.424 2909.92 319.666 2929.14 320.385 2947.92C320.766 2954.09 320.446 2961.9 325.126 2966.65C335.452 2974.91 349.258 2978.43 361.305 2983.59C426.256 3004.87 507.15 3010.83 566.738 2972.41C578.083 2963.41 570.99 2941.22 571.868 2928.06C572.272 2918.02 564.483 2890.23 550.816 2895.84C538.851 2849.46 519.408 2805.52 496.977 2763.4C500.561 2757.07 496.638 2750.86 493.156 2745.52C475.896 2718.96 494.527 2676.58 492.466 2645.25C505.346 2643.68 518.176 2641.6 530.916 2639.06C539.626 2637.32 538.986 2626.49 533.136 2622.52C596.741 2330.75 685.363 2044.64 793.346 1766.29C791.824 1796.6 790.567 1826.88 789.557 1857.24C788.208 1907.63 778.617 1957.27 776.275 2007.53C752.464 2137.92 722.226 2268.55 726.779 2402.04C727.807 2464.55 732.116 2526.99 736.036 2589.36C736.367 2596.54 742.781 2602.6 750.146 2601.03C768.586 2608.13 788.076 2612.59 807.786 2614.84C805.784 2637.64 816.116 2654.05 796.155 2671.16C778.692 2698.44 782.822 2754.22 787.443 2785.88C789.506 2795.97 793.056 2805.21 796.706 2814.78C799.465 2823.47 794.732 2832.13 796.747 2841.04C798.725 2857.19 811.947 2881.68 830.447 2879.23C936.003 2919.2 1058.29 2955.45 1169.32 2918.23C1177.04 2914.38 1185.09 2909.41 1187.86 2900.78C1190.22 2893.08 1193.41 2863.93 1180.08 2866.18C1178.61 2826.68 1132.77 2814.23 1106.64 2792.98C1070.14 2767.92 1037.93 2737.47 1007.43 2705.54C989.838 2687.43 967.747 2670.38 941.346 2670.28C941.423 2667.5 940.566 2665.04 938.816 2663.1L938.806 2663.09C936.497 2645.16 934.006 2626.77 929.637 2609.19C933.295 2608.5 937.07 2608.19 940.637 2607.17C947.74 2610.36 954.691 2603.94 953.066 2596.66C941.031 2520.1 940.881 2442.14 947.967 2365.1C969.789 2128.09 1056.1 1903.64 1099.68 1670.67C1157.46 1691.31 1178.94 1621.32 1189.71 1578.49C1194.9 1552.4 1206.09 1520.28 1191.14 1495.87C1234.87 1513.31 1205.8 1287.28 1194.88 1263.59V1263.59Z" fill="black"/>
<path d="M1134.57 1645.58L1134.88 1645.97L1134.9 1645.96L1134.92 1645.94L1134.57 1645.58ZM1103.61 1647.88L1103.11 1647.8L1103.03 1648.29L1103.52 1648.38L1103.61 1647.88ZM1120.75 1515.73L1120.65 1515.24L1120.29 1515.32L1120.25 1515.68L1120.75 1515.73ZM1184.94 1492.15L1185.37 1491.9L1185.12 1491.48L1184.7 1491.71L1184.94 1492.15ZM933.967 2589.71L934.051 2590.21L934.529 2590.12L934.462 2589.64L933.967 2589.71ZM755.097 2598.78L754.598 2598.75L754.565 2599.24L755.053 2599.28L755.097 2598.78ZM755.757 2256.86L756.252 2256.94L756.254 2256.93L756.255 2256.91L755.757 2256.86ZM803.886 1942L804.385 1942.05L804.385 1942.04L803.886 1942ZM799.576 1764.91L800.062 1764.8L800.055 1764.77L800.044 1764.74L799.576 1764.91ZM799.226 1764.04L798.886 1763.68L798.632 1763.91L798.764 1764.23L799.226 1764.04ZM825.657 1735.25L826.053 1735.56L826.055 1735.56L825.657 1735.25ZM810.196 1722.08L809.729 1721.91L810.554 1722.43L810.196 1722.08ZM840.127 1639.71L840.599 1639.88L839.678 1639.49L840.127 1639.71ZM515.046 2623.81L515.157 2624.3L515.46 2624.23L515.532 2623.93L515.046 2623.81ZM350.146 2634.35L349.647 2634.32L349.616 2634.84L350.133 2634.85L350.146 2634.35ZM483.428 1896.33L483.91 1896.47L483.911 1896.47L483.428 1896.33ZM514.076 1725.4L514.153 1724.91L513.542 1724.81L513.577 1725.43L514.076 1725.4ZM565.696 1703.08L566.003 1702.69L565.568 1702.35L565.273 1702.82L565.696 1703.08ZM589.676 1693.65L590.109 1693.9L590.115 1693.89L590.121 1693.88L589.676 1693.65ZM588.277 1626.48L588.354 1625.99L587.577 1625.87L587.796 1626.62L588.277 1626.48ZM622.226 1587.37L622.643 1587.1L622.606 1587.04L622.555 1587L622.226 1587.37ZM550.766 1529.02L550.267 1529.05L550.277 1529.25L550.423 1529.39L550.766 1529.02ZM578.186 1415.08L578.475 1414.67L577.946 1414.3L577.718 1414.91L578.186 1415.08ZM792.015 1562.22L791.76 1562.65L791.854 1562.7L791.964 1562.71L792.015 1562.22ZM824.606 1546.83L824.903 1547.24L824.904 1547.23L824.606 1546.83ZM906.326 1485.8L906.5 1485.33L906.24 1485.24L906.021 1485.41L906.326 1485.8ZM915.177 1484.94L915.542 1484.6L915.252 1484.29L914.898 1484.53L915.177 1484.94ZM967.487 1538.8L967.118 1539.14L967.132 1539.16L967.147 1539.17L967.487 1538.8ZM999.305 1566.57L999.182 1567.06L999.199 1567.06L999.215 1567.07L999.305 1566.57ZM1014.48 1560.41L1014.11 1560.07L1014.11 1560.07L1014.48 1560.41ZM1095.12 1481.05L1095.51 1480.74L1095.16 1480.31L1094.77 1480.7L1095.12 1481.05ZM1104.97 1482.78L1105.47 1482.79L1105.48 1481.86L1104.7 1482.36L1104.97 1482.78ZM861.407 2716.22L861.304 2716.71L861.324 2716.72L861.343 2716.72L861.407 2716.22ZM822.446 2677.48L822.179 2677.06L821.87 2677.26L821.963 2677.61L822.446 2677.48ZM824.726 2672.63L825.225 2672.6L825.225 2672.6L824.726 2672.63ZM820.996 2616.02L821.024 2615.52L820.461 2615.49L820.498 2616.06L820.996 2616.02ZM919.376 2610.75L919.872 2610.82L919.958 2610.17L919.308 2610.26L919.376 2610.75ZM917.466 2637.88L916.967 2637.87L916.966 2637.89L916.967 2637.9L917.466 2637.88ZM812.026 2661.98L812.525 2661.95L812.4 2660.06L811.576 2661.76L812.026 2661.98ZM812.316 2666.47L812.058 2666.9L812.873 2667.39L812.816 2666.44L812.316 2666.47ZM1019.77 2738.28L1020.12 2737.93L1020.12 2737.93L1019.77 2738.28ZM1120.3 2818.92L1120.03 2819.34L1120.03 2819.35L1120.3 2818.92ZM1163.22 2875.88L1163.63 2876.17L1163.64 2876.15L1163.65 2876.13L1163.22 2875.88ZM1115.75 2894.85L1115.77 2895.35L1116.06 2895.34L1116.19 2895.08L1115.75 2894.85ZM919.216 2860.47L919.061 2860.95L919.068 2860.95L919.075 2860.95L919.216 2860.47ZM821.566 2830.27L821.237 2830.65L821.297 2830.7L821.37 2830.73L821.566 2830.27ZM795.524 2708.78L795.033 2708.69L795.03 2708.71L795.028 2708.73L795.524 2708.78ZM812.456 2668.52L812.956 2668.52L812.954 2668.17L812.623 2668.05L812.456 2668.52ZM816.736 2677.98L817.225 2677.88L817.161 2677.58L816.863 2677.5L816.736 2677.98ZM816.916 2678.83L816.762 2679.31L817.62 2679.59L817.402 2678.71L816.916 2678.83ZM815.556 2680.02L816.03 2679.86L816.026 2679.85L816.02 2679.83L815.556 2680.02ZM888.297 2721.09L888.569 2721.51L888.577 2721.51L888.585 2721.5L888.297 2721.09ZM924.696 2686.39L924.87 2686.86L924.87 2686.86L924.696 2686.39ZM1180.08 2874.36L1180.54 2874.18L1180.42 2873.87L1180.09 2873.86L1180.08 2874.36ZM1180.5 2893.88L1180.99 2893.98L1180.99 2893.96L1180.99 2893.94L1180.5 2893.88ZM1126.51 2921.17L1126.59 2921.67L1126.6 2921.67L1126.51 2921.17ZM944.637 2908.78L944.761 2908.3L944.757 2908.3L944.637 2908.78ZM858.827 2883.33L858.994 2882.86L858.983 2882.86L858.972 2882.85L858.827 2883.33ZM806.097 2831.46L806.498 2831.17L805.725 2830.12L805.599 2831.41L806.097 2831.46ZM886.816 2863.56L886.651 2864.03L886.661 2864.03L886.67 2864.03L886.816 2863.56ZM1102.18 2908.52L1102.17 2909.02L1102.18 2909.02L1102.2 2909.02L1102.18 2908.52ZM1137.31 2902.72L1137.24 2902.23L1137.07 2902.25L1136.95 2902.37L1137.31 2902.72ZM465.326 2725.87L465.071 2726.3L465.818 2726.75L465.826 2725.88L465.326 2725.87ZM362.186 2747.06L361.692 2746.99L361.516 2748.22L362.495 2747.46L362.186 2747.06ZM358.024 2707.31L357.564 2707.12L357.541 2707.17L357.532 2707.23L358.024 2707.31ZM373.816 2643.95L373.901 2643.46L373.2 2643.34L373.324 2644.04L373.816 2643.95ZM485.896 2646.01L486.365 2646.19L486.646 2645.43L485.845 2645.52L485.896 2646.01ZM514.516 2818.57L514.999 2818.44L514.949 2818.26L514.788 2818.15L514.516 2818.57ZM535.637 2896.83L536.127 2896.74L536.126 2896.73L536.123 2896.72L535.637 2896.83ZM539.936 2935.23L540.069 2935.71L540.386 2935.63L540.432 2935.3L539.936 2935.23ZM533.406 2938.74L533.511 2939.23L533.691 2939.19L533.803 2939.05L533.406 2938.74ZM347.976 2923.51L347.52 2923.72L347.59 2923.87L347.74 2923.95L347.976 2923.51ZM350.363 2787.16L350.858 2787.24L350.863 2787.21L350.863 2787.18L350.363 2787.16ZM361.536 2753.94L361.287 2753.51L361.06 2753.64L361.038 2753.9L361.536 2753.94ZM468.126 2744.88L468.583 2744.68L468.549 2744.6L468.495 2744.54L468.126 2744.88ZM485.116 2769.45L485.558 2769.22L485.463 2769.04L485.272 2768.98L485.116 2769.45ZM540.856 2935.34L540.801 2935.84L541.045 2935.87L541.216 2935.69L540.856 2935.34ZM556.316 2936.28L555.819 2936.23L555.789 2936.52L556.023 2936.69L556.316 2936.28ZM553.316 2906.68L553.685 2906.34L552.437 2904.99L552.828 2906.79L553.316 2906.68ZM560.917 2949.63L561.417 2949.64L561.418 2949.61L561.414 2949.57L560.917 2949.63ZM557.006 2965.17L556.804 2964.72L556.761 2964.73L556.722 2964.76L557.006 2965.17ZM488.116 2988.48L488.173 2988.98L488.174 2988.98L488.116 2988.48ZM333.516 2960.32L333.114 2960.62L333.183 2960.71L333.286 2960.77L333.516 2960.32ZM328.596 2918.14L329.093 2918.08L328.098 2918.18L328.596 2918.14ZM450.636 2964.42L450.631 2964.92L450.633 2964.92L450.636 2964.42ZM483.366 1703.68L483.085 1704.1L483.246 1704.2L483.438 1704.18L483.366 1703.68ZM429.366 1512.95L429.49 1512.47L428.773 1512.29L428.871 1513.02L429.366 1512.95ZM518.426 1508.55L518.924 1508.5L518.86 1507.87L518.263 1508.08L518.426 1508.55ZM528.636 1512.98L529.072 1512.74L528.754 1512.17L528.288 1512.62L528.636 1512.98ZM606.806 1599.66L606.488 1600.05L607.768 1601.11L607.285 1599.52L606.806 1599.66ZM606.646 1599.82L607.105 1600.02L606.208 1599.58L606.646 1599.82ZM582.266 1610.09L582.565 1610.5L582.586 1610.48L582.605 1610.46L582.266 1610.09ZM579.836 1622.47L580.307 1622.64L580.397 1622.39L580.24 1622.18L579.836 1622.47ZM573.356 1685.07L573.735 1685.4L573.767 1685.36L573.791 1685.32L573.356 1685.07ZM565.756 1693L565.474 1693.42L565.893 1693.7L566.174 1693.28L565.756 1693ZM524.136 1704.78L524.105 1704.28L524.136 1705.28V1704.78ZM524.446 1704.77L524.502 1705.27L524.397 1704.27L524.446 1704.77ZM516.716 1704.62L516.64 1705.12L516.647 1705.12L516.716 1704.62ZM541.876 954.142L541.962 953.65L541.498 953.569L541.39 954.028L541.876 954.142ZM549.316 971.442L548.825 971.535L548.827 971.543L548.828 971.55L549.316 971.442ZM552.585 1295.76L552.088 1295.72L552.087 1295.72L552.585 1295.76ZM546.536 1382.55L547.031 1382.63L547.034 1382.61L547.036 1382.58L546.536 1382.55ZM567.986 1407.68L568.464 1407.83L568.559 1407.52L568.319 1407.31L567.986 1407.68ZM539.316 1518.7L538.978 1519.07L539.889 1519.91L539.816 1518.67L539.316 1518.7ZM530.246 1510.22L529.769 1510.08L529.677 1510.37L529.902 1510.59L530.246 1510.22ZM532.206 1502.85L531.976 1502.41L531.769 1502.52L531.718 1502.74L532.206 1502.85ZM533.926 1492.71L533.427 1492.71L533.425 1492.94L533.595 1493.09L533.926 1492.71ZM835.551 721.613L835.245 721.218L835.237 721.225L835.551 721.613ZM864.964 838.042L864.544 837.77L864.527 837.797L864.513 837.825L864.964 838.042ZM869.392 949.304L869.511 948.819L869.507 948.818L869.392 949.304ZM898.502 1058.26L899.002 1058.28L899.002 1058.27L898.502 1058.26ZM923.021 1180.81L922.525 1180.76L922.515 1180.85L922.536 1180.93L923.021 1180.81ZM909.112 1190.06L909.599 1189.95L909.572 1189.83L909.497 1189.74L909.112 1190.06ZM929.163 1312.73L929.375 1312.28L929.007 1312.11L928.763 1312.43L929.163 1312.73ZM922.083 1328.32L922.399 1327.94L922.372 1327.92L922.343 1327.9L922.083 1328.32ZM925.042 1440.02L925.399 1439.67L925.391 1439.67L925.042 1440.02ZM1187.3 1491.95L1186.97 1492.33L1187.73 1491.7L1187.3 1491.95ZM1186.52 1491.29L1186.27 1490.86L1185.64 1491.21L1186.19 1491.68L1186.52 1491.29ZM1127.03 1077.85L1126.55 1078.01L1126.56 1078.03L1126.56 1078.05L1127.03 1077.85ZM1081.63 827.553L1081.13 827.61L1081.13 827.611L1081.63 827.553ZM1059.44 686.022L1058.94 686.076L1058.94 686.106L1058.95 686.137L1059.44 686.022ZM892.726 576.213L892.227 576.207L892.221 576.624L892.631 576.704L892.726 576.213ZM887.665 555.613L887.309 555.964L887.349 556.005L887.397 556.035L887.665 555.613ZM837.176 536.243L836.714 536.434L837.039 537.224L837.569 536.553L837.176 536.243ZM831.626 514.392L832.118 514.303L832.113 514.273L832.104 514.244L831.626 514.392ZM827.207 501.582L827.195 501.083L826.724 501.094L826.708 501.565L827.207 501.582ZM834.887 564.463L835.305 564.738L835.542 564.375L835.217 564.088L834.887 564.463ZM803.387 610.283L803.017 609.947L803.725 610.651L803.387 610.283ZM803.417 610.253L803.77 610.607L803.144 609.834L803.417 610.253ZM801.396 611.442L801.081 611.054L801.633 611.883L801.396 611.442ZM799.827 611.913L799.92 612.405L799.95 612.399L799.979 612.39L799.827 611.913ZM793.246 610.772V610.272L793.04 611.228L793.246 610.772ZM793.267 610.772V611.272H795.158L793.514 610.338L793.267 610.772ZM659.616 529.102L659.202 528.822L658.916 529.246L659.346 529.523L659.616 529.102ZM666.228 468.002L666.542 467.614L665.965 467.146L665.749 467.857L666.228 468.002ZM646.846 520.862L646.607 521.301L647.066 521.552L647.296 521.082L646.846 520.862ZM622.066 519.112L621.649 518.838L621.643 518.847L621.637 518.856L622.066 519.112ZM621.417 563.072L621.6 563.538L622.198 563.302L621.822 562.78L621.417 563.072ZM499.307 596.044L499.431 596.529L499.44 596.526L499.449 596.524L499.307 596.044ZM446.376 611.793L446.162 611.342L446.148 611.348L446.134 611.356L446.376 611.793ZM391.543 756.401L391.046 756.347L391.045 756.36L391.044 756.373L391.543 756.401ZM402.594 1485.93L402.114 1486.07L402.119 1486.09L402.125 1486.1L402.594 1485.93ZM412.216 1507.39L411.756 1507.59L411.757 1507.59L412.216 1507.39ZM418.636 1508.6L418.892 1508.17L418.605 1508L418.338 1508.2L418.636 1508.6ZM426.236 1512L426.735 1512.04L426.764 1511.65L426.395 1511.53L426.236 1512ZM475.163 1723.27L474.901 1723.7L474.925 1723.71L474.95 1723.73L475.163 1723.27ZM488.296 1724.16L488.358 1724.66L488.361 1724.66L488.296 1724.16ZM510.676 1724.91L511.175 1724.95L511.209 1724.5L510.769 1724.42L510.676 1724.91ZM422.023 2056.18L422.508 2056.31L422.511 2056.29L422.514 2056.28L422.023 2056.18ZM327.716 2634.73L327.218 2634.69L327.217 2634.7L327.217 2634.71L327.716 2634.73ZM349.366 2638.31L349.506 2637.83L349.019 2637.69L348.885 2638.18L349.366 2638.31ZM370.176 2643.28L370.643 2643.46L370.858 2642.9L370.27 2642.79L370.176 2643.28ZM359.236 2671.82L358.781 2671.62L358.779 2671.62L359.236 2671.82ZM343.566 2703.32L343.08 2703.21L343.076 2703.22L343.074 2703.24L343.566 2703.32ZM345.644 2756.35L345.174 2756.18L345.15 2756.25L345.145 2756.32L345.644 2756.35ZM332.036 2815.57L332.527 2815.67L332.529 2815.66L332.53 2815.65L332.036 2815.57ZM324.576 2891.38L325.058 2891.52L325.08 2891.44L325.076 2891.36L324.576 2891.38ZM320.385 2947.92L319.886 2947.94L319.886 2947.95L320.385 2947.92ZM325.126 2966.65L324.77 2967L324.791 2967.02L324.814 2967.04L325.126 2966.65ZM361.305 2983.59L361.108 2984.05L361.129 2984.06L361.15 2984.07L361.305 2983.59ZM566.738 2972.41L567.008 2972.83L567.029 2972.81L567.048 2972.8L566.738 2972.41ZM571.868 2928.06L572.368 2928.1L572.368 2928.08L571.868 2928.06ZM550.816 2895.84L550.332 2895.97L550.476 2896.52L551.006 2896.31L550.816 2895.84ZM496.977 2763.4L496.541 2763.16L496.406 2763.39L496.535 2763.64L496.977 2763.4ZM493.156 2745.52L492.737 2745.79L492.738 2745.8L493.156 2745.52ZM492.466 2645.25L492.406 2644.76L491.937 2644.81L491.968 2645.29L492.466 2645.25ZM530.916 2639.06L531.014 2639.55L531.014 2639.55L530.916 2639.06ZM533.136 2622.52L532.648 2622.42L532.576 2622.75L532.856 2622.94L533.136 2622.52ZM793.346 1766.29L793.846 1766.32L792.88 1766.11L793.346 1766.29ZM789.557 1857.24L789.058 1857.23L789.058 1857.23L789.557 1857.24ZM776.275 2007.53L776.766 2007.62L776.772 2007.59L776.774 2007.56L776.275 2007.53ZM726.779 2402.04L727.279 2402.04L727.278 2402.03L726.779 2402.04ZM736.036 2589.36L736.536 2589.34L736.536 2589.33L736.036 2589.36ZM750.146 2601.03L750.326 2600.57L750.188 2600.51L750.042 2600.54L750.146 2601.03ZM807.786 2614.84L808.285 2614.89L808.327 2614.4L807.843 2614.35L807.786 2614.84ZM796.155 2671.16L795.83 2670.78L795.774 2670.83L795.734 2670.89L796.155 2671.16ZM787.443 2785.88L786.949 2785.95L786.951 2785.97L786.954 2785.98L787.443 2785.88ZM796.706 2814.78L797.183 2814.63L797.179 2814.62L797.174 2814.61L796.706 2814.78ZM796.747 2841.04L797.244 2840.98L797.241 2840.96L797.235 2840.93L796.747 2841.04ZM830.447 2879.23L830.624 2878.76L830.506 2878.72L830.381 2878.74L830.447 2879.23ZM1169.32 2918.23L1169.48 2918.7L1169.51 2918.69L1169.54 2918.68L1169.32 2918.23ZM1187.86 2900.78L1188.33 2900.94L1188.33 2900.93L1187.86 2900.78ZM1180.08 2866.18L1179.58 2866.2L1179.6 2866.77L1180.16 2866.68L1180.08 2866.18ZM1106.64 2792.98L1106.95 2792.59L1106.94 2792.58L1106.92 2792.57L1106.64 2792.98ZM1007.43 2705.54L1007.79 2705.2L1007.79 2705.19L1007.43 2705.54ZM941.346 2670.28L940.847 2670.27L940.832 2670.78L941.345 2670.78L941.346 2670.28ZM938.816 2663.1L939.188 2662.77L939.171 2662.75L939.151 2662.73L938.816 2663.1ZM938.806 2663.09L938.311 2663.16L938.334 2663.34L938.472 2663.46L938.806 2663.09ZM929.637 2609.19L929.543 2608.7L929.024 2608.8L929.151 2609.31L929.637 2609.19ZM940.637 2607.17L940.841 2606.72L940.675 2606.64L940.499 2606.69L940.637 2607.17ZM953.066 2596.66L952.572 2596.74L952.574 2596.76L952.578 2596.77L953.066 2596.66ZM947.967 2365.1L947.47 2365.06L947.47 2365.06L947.967 2365.1ZM1099.68 1670.67L1099.84 1670.2L1099.29 1670.01L1099.19 1670.58L1099.68 1670.67ZM1189.71 1578.49L1190.19 1578.61L1190.19 1578.6L1190.2 1578.59L1189.71 1578.49ZM1191.14 1495.87L1191.32 1495.41L1189.92 1494.85L1190.71 1496.13L1191.14 1495.87ZM1184.08 1524.31C1178.46 1543.19 1173.11 1566.47 1165.58 1588.58C1158.05 1610.67 1148.39 1631.45 1134.22 1645.22L1134.92 1645.94C1149.26 1632 1158.99 1611.03 1166.53 1588.9C1174.06 1566.79 1179.45 1543.37 1185.04 1524.6L1184.08 1524.31ZM1134.26 1645.19C1129.77 1648.76 1124.8 1649.77 1119.6 1649.66C1114.38 1649.55 1109 1648.31 1103.69 1647.39L1103.52 1648.38C1108.75 1649.28 1114.26 1650.55 1119.58 1650.66C1124.93 1650.78 1130.16 1649.73 1134.88 1645.97L1134.26 1645.19ZM1104.1 1647.96C1111.33 1604.15 1116.63 1559.95 1121.24 1515.78L1120.25 1515.68C1115.64 1559.84 1110.34 1604.01 1103.11 1647.8L1104.1 1647.96ZM1120.85 1516.22C1143.35 1511.6 1165.03 1503.61 1185.18 1492.59L1184.7 1491.71C1164.64 1502.69 1143.05 1510.64 1120.65 1515.24L1120.85 1516.22ZM1184.51 1492.41C1187.15 1496.84 1187.66 1502.46 1187.2 1508.19C1186.73 1513.91 1185.28 1519.67 1184.07 1524.33L1185.04 1524.58C1186.25 1519.93 1187.72 1514.09 1188.19 1508.27C1188.67 1502.46 1188.16 1496.59 1185.37 1491.9L1184.51 1492.41ZM1097.67 1557.18C1078.72 1730.31 1025.38 1899.84 982.905 2070.45C940.434 2241.02 908.838 2412.63 933.471 2589.78L934.462 2589.64C909.857 2412.69 941.411 2241.24 983.875 2070.69C1026.33 1900.16 1079.71 1730.51 1098.66 1557.29L1097.67 1557.18ZM933.882 2589.22C874.87 2599.3 814.855 2603.49 755.14 2598.29L755.053 2599.28C814.872 2604.49 874.975 2600.29 934.051 2590.21L933.882 2589.22ZM755.595 2598.82C759.196 2544.09 755.179 2486.77 752.355 2429.08C749.53 2371.37 747.899 2313.28 756.252 2256.94L755.263 2256.79C746.895 2313.24 748.532 2371.42 751.356 2429.13C754.181 2486.85 758.194 2544.1 754.598 2598.75L755.595 2598.82ZM756.255 2256.91C761.597 2204.07 771.228 2151.84 780.726 2099.57C790.223 2047.3 799.587 1995 804.384 1942.05L803.389 1941.96C798.596 1994.86 789.24 2047.12 779.742 2099.39C770.246 2151.65 760.607 2203.92 755.26 2256.81L756.255 2256.91ZM804.385 1942.04C808.649 1883.55 813.975 1822.36 800.062 1764.8L799.09 1765.03C812.958 1822.42 807.654 1883.43 803.388 1941.97L804.385 1942.04ZM800.044 1764.74C799.931 1764.44 799.808 1764.14 799.688 1763.85L798.764 1764.23C798.885 1764.53 799.002 1764.81 799.109 1765.09L800.044 1764.74ZM799.567 1764.41C809.097 1755.57 818.107 1745.91 826.053 1735.56L825.26 1734.95C817.352 1745.25 808.382 1754.87 798.886 1763.68L799.567 1764.41ZM826.055 1735.56C827.84 1733.2 828.214 1730.62 827.633 1728.23C827.057 1725.86 825.546 1723.68 823.593 1722.06C819.716 1718.84 813.846 1717.64 809.839 1721.73L810.554 1722.43C814.046 1718.87 819.287 1719.79 822.955 1722.83C824.774 1724.34 826.145 1726.34 826.662 1728.47C827.174 1730.58 826.853 1732.84 825.258 1734.95L826.055 1735.56ZM810.664 1722.26C821.012 1694.92 830.956 1667.46 840.599 1639.88L839.655 1639.55C830.015 1667.13 820.073 1694.58 809.729 1721.91L810.664 1722.26ZM839.678 1639.49C690.525 1940.49 594.99 2291.06 514.56 2623.69L515.532 2623.93C595.961 2291.3 691.474 1940.83 840.575 1639.94L839.678 1639.49ZM514.935 2623.32C460.908 2635.63 405.282 2635.33 350.16 2633.85L350.133 2634.85C405.255 2636.33 460.995 2636.63 515.157 2624.3L514.935 2623.32ZM350.646 2634.38C365.742 2384.08 415.886 2137.45 483.91 1896.47L482.947 1896.2C414.911 2137.23 364.749 2383.93 349.647 2634.32L350.646 2634.38ZM483.911 1896.47C499.12 1840.78 517.937 1784.01 514.576 1725.37L513.577 1725.43C516.926 1783.86 498.179 1840.43 482.946 1896.2L483.911 1896.47ZM514 1725.9C522.992 1727.3 533.6 1725.49 543.152 1721.44C552.703 1717.38 561.264 1711.06 566.12 1703.35L565.273 1702.82C560.559 1710.3 552.189 1716.51 542.762 1720.52C533.336 1724.52 522.919 1726.27 514.153 1724.91L514 1725.9ZM565.39 1703.48C569.94 1707.01 575.008 1706.59 579.459 1704.31C583.893 1702.04 587.775 1697.92 590.109 1693.9L589.244 1693.4C586.988 1697.28 583.235 1701.25 579.004 1703.42C574.79 1705.58 570.163 1705.92 566.003 1702.69L565.39 1703.48ZM590.121 1693.88C600.825 1672.99 594.896 1647.53 588.757 1626.34L587.796 1626.62C593.949 1647.85 599.73 1672.93 589.231 1693.42L590.121 1693.88ZM588.199 1626.98C599.188 1628.7 611.534 1624.48 619.275 1616.98C623.151 1613.22 625.893 1608.62 626.71 1603.51C627.528 1598.38 626.408 1592.8 622.643 1587.1L621.808 1587.65C625.451 1593.16 626.497 1598.5 625.722 1603.35C624.946 1608.2 622.335 1612.62 618.578 1616.26C611.054 1623.55 599.018 1627.67 588.354 1625.99L588.199 1626.98ZM622.555 1587C611.095 1576.94 598.826 1567.63 586.634 1558.21C574.436 1548.78 562.311 1539.22 551.11 1528.66L550.423 1529.39C561.665 1539.99 573.824 1549.57 586.022 1559C598.226 1568.43 610.465 1577.72 621.896 1587.75L622.555 1587ZM551.266 1529C549.352 1489.44 564.677 1452.52 578.655 1415.26L577.718 1414.91C563.768 1452.1 548.341 1489.24 550.267 1529.05L551.266 1529ZM577.898 1415.49C648.433 1465.2 717.645 1518.74 791.76 1562.65L792.269 1561.79C718.2 1517.9 649.058 1464.42 578.475 1414.67L577.898 1415.49ZM791.964 1562.71C798.48 1563.38 804.346 1561.24 809.754 1558.08C815.145 1554.94 820.158 1550.73 824.903 1547.24L824.31 1546.43C819.493 1549.98 814.58 1554.11 809.25 1557.22C803.938 1560.32 798.289 1562.35 792.065 1561.72L791.964 1562.71ZM824.904 1547.23C852.189 1526.99 879.737 1507 906.632 1486.2L906.021 1485.41C879.136 1506.2 851.604 1526.18 824.309 1546.43L824.904 1547.23ZM906.153 1486.27C909.235 1487.41 912.796 1487.14 915.455 1485.36L914.898 1484.53C912.537 1486.11 909.318 1486.37 906.5 1485.33L906.153 1486.27ZM914.811 1485.28C923.404 1494.49 932.24 1503.34 941.046 1512.19C949.853 1521.05 958.631 1529.91 967.118 1539.14L967.855 1538.47C959.353 1529.21 950.562 1520.34 941.755 1511.49C932.946 1502.63 924.122 1493.79 915.542 1484.6L914.811 1485.28ZM967.147 1539.17C969.675 1541.51 972.033 1544.18 974.38 1546.94C976.72 1549.69 979.056 1552.54 981.515 1555.21C986.435 1560.54 991.92 1565.21 999.182 1567.06L999.429 1566.09C992.449 1564.32 987.127 1559.82 982.25 1554.53C979.809 1551.88 977.498 1549.06 975.142 1546.29C972.791 1543.52 970.4 1540.82 967.826 1538.44L967.147 1539.17ZM999.215 1567.07C1002.64 1567.69 1005.47 1567.3 1008 1566.14C1010.51 1564.98 1012.69 1563.08 1014.84 1560.75L1014.11 1560.07C1011.99 1562.36 1009.92 1564.15 1007.58 1565.23C1005.25 1566.3 1002.63 1566.67 999.396 1566.08L999.215 1567.07ZM1014.84 1560.76C1040.75 1533.34 1068.6 1507.91 1095.47 1481.41L1094.77 1480.7C1067.94 1507.16 1040.03 1532.64 1014.11 1560.07L1014.84 1560.76ZM1094.73 1481.37C1096.98 1484.18 1101.72 1485.46 1105.24 1483.2L1104.7 1482.36C1101.67 1484.31 1097.49 1483.21 1095.51 1480.74L1094.73 1481.37ZM1104.47 1482.78C1104.13 1507.6 1100.58 1532.45 1097.67 1557.17L1098.66 1557.29C1101.57 1532.6 1105.13 1507.68 1105.47 1482.79L1104.47 1482.78ZM919.138 2673.67C912.827 2675.49 907.863 2679.32 903.522 2683.93C899.191 2688.53 895.436 2693.96 891.594 2698.98C883.876 2709.07 875.76 2717.58 861.472 2715.73L861.343 2716.72C876.226 2718.65 884.658 2709.69 892.388 2699.59C896.271 2694.51 899.965 2689.17 904.25 2684.62C908.523 2680.08 913.339 2676.39 919.415 2674.63L919.138 2673.67ZM861.511 2715.74C842.831 2711.8 827.728 2695.59 822.93 2677.36L821.963 2677.61C826.843 2696.16 842.206 2712.69 861.304 2716.71L861.511 2715.74ZM822.714 2677.9C824.321 2676.89 825.387 2675.1 825.225 2672.6L824.228 2672.67C824.366 2674.81 823.472 2676.24 822.179 2677.06L822.714 2677.9ZM825.225 2672.6C824.605 2663.17 823.983 2653.73 823.36 2644.29C822.738 2634.86 822.115 2625.42 821.495 2615.99L820.498 2616.06C821.118 2625.49 821.74 2634.93 822.363 2644.36C822.985 2653.8 823.608 2663.23 824.228 2672.67L825.225 2672.6ZM820.969 2616.52C853.834 2618.34 886.826 2615.75 919.445 2611.25L919.308 2610.26C886.725 2614.75 853.803 2617.33 821.024 2615.52L820.969 2616.52ZM918.881 2610.69C917.697 2619.67 917.227 2628.73 916.967 2637.87L917.966 2637.9C918.226 2628.77 918.695 2619.75 919.872 2610.82L918.881 2610.69ZM916.967 2637.9C917.199 2643.69 916.468 2650.01 916.267 2656.36C916.068 2662.66 916.4 2668.92 918.82 2674.36L919.733 2673.95C917.409 2668.73 917.069 2662.66 917.267 2656.39C917.464 2650.17 918.2 2643.68 917.966 2637.86L916.967 2637.9ZM810.258 2665.95C811.078 2664.76 811.833 2663.53 812.477 2662.2L811.576 2661.76C810.96 2663.04 810.235 2664.22 809.435 2665.38L810.258 2665.95ZM811.528 2662.02C811.628 2663.52 811.728 2665.01 811.817 2666.5L812.816 2666.44C812.725 2664.95 812.625 2663.45 812.525 2661.95L811.528 2662.02ZM812.575 2666.05C811.728 2665.53 810.825 2665.25 809.893 2665.17L809.8 2666.16C810.588 2666.23 811.345 2666.47 812.058 2666.9L812.575 2666.05ZM975.185 2696.62C983.565 2702.32 991.029 2709.25 998.197 2716.54C1001.78 2720.19 1005.29 2723.92 1008.8 2727.64C1012.31 2731.36 1015.82 2735.06 1019.41 2738.64L1020.12 2737.93C1016.54 2734.37 1013.04 2730.68 1009.53 2726.96C1006.02 2723.24 1002.5 2719.5 998.911 2715.84C991.724 2708.53 984.208 2701.55 975.748 2695.79L975.185 2696.62ZM1019.41 2738.64C1049.94 2769.02 1083.79 2796.08 1120.03 2819.34L1120.57 2818.5C1084.39 2795.27 1050.59 2768.26 1020.12 2737.93L1019.41 2738.64ZM1120.03 2819.35C1129.52 2825.25 1144.11 2832.56 1154.41 2841.85C1159.55 2846.49 1163.57 2851.58 1165.34 2857.18C1167.11 2862.75 1166.66 2868.87 1162.78 2875.64L1163.65 2876.13C1167.66 2869.14 1168.15 2862.73 1166.3 2856.87C1164.45 2851.04 1160.28 2845.81 1155.08 2841.11C1144.69 2831.73 1129.93 2824.32 1120.56 2818.5L1120.03 2819.35ZM1162.8 2875.6C1157.06 2884.06 1146.63 2886.36 1136.82 2887.73C1131.96 2888.4 1127.24 2888.85 1123.45 2889.74C1119.68 2890.62 1116.62 2891.98 1115.3 2894.63L1116.19 2895.08C1117.3 2892.87 1119.93 2891.59 1123.67 2890.71C1127.4 2889.84 1132.03 2889.4 1136.96 2888.72C1146.74 2887.36 1157.61 2885.03 1163.63 2876.17L1162.8 2875.6ZM1115.73 2894.35C1048.72 2897.11 983.151 2878.79 919.358 2859.99L919.075 2860.95C982.852 2879.74 1048.57 2898.12 1115.77 2895.35L1115.73 2894.35ZM919.372 2860C903.167 2854.7 886.581 2850.51 870.154 2845.97C853.717 2841.42 837.427 2836.52 821.763 2829.81L821.37 2830.73C837.097 2837.47 853.442 2842.38 869.887 2846.93C886.343 2851.48 902.886 2855.66 919.061 2860.95L919.372 2860ZM821.896 2829.9C806.985 2816.83 799.466 2795.9 796.205 2773.51C792.946 2751.14 793.954 2727.4 796.021 2708.84L795.028 2708.73C792.955 2727.34 791.94 2751.17 795.216 2773.65C798.489 2796.13 806.061 2817.35 821.237 2830.65L821.896 2829.9ZM796.016 2708.88C796.429 2706.67 796.894 2702.74 797.551 2698.22C798.211 2693.68 799.069 2688.52 800.273 2683.78C801.481 2679.03 803.024 2674.75 805.028 2671.96C806.027 2670.56 807.119 2669.57 808.308 2669.05C809.483 2668.54 810.795 2668.47 812.29 2668.99L812.623 2668.05C810.906 2667.45 809.331 2667.51 807.907 2668.13C806.497 2668.75 805.277 2669.89 804.215 2671.38C802.097 2674.33 800.518 2678.76 799.304 2683.54C798.087 2688.33 797.223 2693.53 796.562 2698.08C795.897 2702.64 795.441 2706.51 795.033 2708.69L796.016 2708.88ZM811.956 2668.53C811.967 2670.33 812.063 2672.51 812.67 2674.37C813.282 2676.26 814.442 2677.9 816.61 2678.47L816.863 2677.5C815.142 2677.05 814.172 2675.76 813.621 2674.07C813.066 2672.36 812.967 2670.31 812.956 2668.52L811.956 2668.53ZM816.248 2678.09C816.301 2678.34 816.359 2678.67 816.431 2678.95L817.402 2678.71C817.334 2678.44 817.292 2678.19 817.225 2677.88L816.248 2678.09ZM817.071 2678.36C816.548 2678.19 815.95 2678.29 815.527 2678.6C815.309 2678.76 815.124 2678.99 815.035 2679.28C814.945 2679.58 814.965 2679.89 815.093 2680.21L816.02 2679.83C815.968 2679.71 815.976 2679.62 815.991 2679.57C816.007 2679.52 816.046 2679.46 816.121 2679.41C816.283 2679.29 816.545 2679.24 816.762 2679.31L817.071 2678.36ZM815.083 2680.18C819.951 2694.68 830.407 2710.09 843.587 2719.35C856.789 2728.62 872.779 2731.75 888.569 2721.51L888.026 2720.67C872.664 2730.63 857.123 2727.63 844.162 2718.53C831.18 2709.41 820.841 2694.19 816.03 2679.86L815.083 2680.18ZM888.585 2721.5C895.581 2716.58 900.614 2709.35 905.891 2702.69C911.193 2696 916.76 2689.86 924.87 2686.86L924.523 2685.92C916.133 2689.03 910.419 2695.37 905.107 2702.07C899.77 2708.8 894.853 2715.87 888.01 2720.68L888.585 2721.5ZM924.87 2686.86C941.942 2680.53 960.697 2686.75 975.185 2696.62L975.748 2695.79C961.136 2685.84 942.031 2679.43 924.523 2685.92L924.87 2686.86ZM1178.52 2874.49C1179.02 2874.74 1179.54 2874.85 1180.07 2874.86L1180.09 2873.86C1179.69 2873.85 1179.32 2873.77 1178.96 2873.59L1178.52 2874.49ZM1179.61 2874.54C1179.91 2875.31 1180.11 2876.73 1180.24 2878.54C1180.35 2880.33 1180.39 2882.42 1180.38 2884.5C1180.35 2888.65 1180.12 2892.67 1180 2893.83L1180.99 2893.94C1181.12 2892.73 1181.35 2888.67 1181.38 2884.51C1181.39 2882.42 1181.35 2880.29 1181.23 2878.47C1181.11 2876.67 1180.9 2875.11 1180.54 2874.18L1179.61 2874.54ZM1180.01 2893.79C1178.03 2903.87 1169.09 2909.82 1158.3 2913.65C1147.52 2917.48 1135.1 2919.11 1126.42 2920.68L1126.6 2921.67C1135.21 2920.11 1147.75 2918.45 1158.63 2914.6C1169.49 2910.74 1178.9 2904.62 1180.99 2893.98L1180.01 2893.79ZM1126.43 2920.68C1065.74 2930.24 1004 2923.56 944.761 2908.3L944.512 2909.27C1003.84 2924.55 1065.73 2931.26 1126.59 2921.67L1126.43 2920.68ZM944.757 2908.3C915.829 2901.13 887.065 2892.84 858.994 2882.86L858.659 2883.8C886.768 2893.8 915.564 2902.09 944.516 2909.27L944.757 2908.3ZM858.972 2882.85C846.498 2879.06 832.618 2874.03 822.245 2866.02C811.899 2858.04 805.065 2847.13 806.594 2831.51L805.599 2831.41C804.028 2847.45 811.08 2858.67 821.634 2866.82C832.162 2874.94 846.197 2880.01 858.681 2883.81L858.972 2882.85ZM805.695 2831.76C809.235 2836.54 814.699 2840.45 821.208 2843.75C827.721 2847.05 835.315 2849.76 843.154 2852.12C850.993 2854.47 859.094 2856.49 866.618 2858.39C874.15 2860.3 881.095 2862.1 886.651 2864.03L886.98 2863.08C881.375 2861.13 874.387 2859.33 866.863 2857.42C859.331 2855.52 851.255 2853.51 843.442 2851.16C835.628 2848.81 828.097 2846.12 821.66 2842.86C815.219 2839.59 809.908 2835.77 806.498 2831.17L805.695 2831.76ZM886.67 2864.03C956.802 2885.34 1028.05 2908.29 1102.17 2909.02L1102.18 2908.02C1028.23 2907.29 957.133 2884.39 886.961 2863.08L886.67 2864.03ZM1102.2 2909.02C1104.98 2908.9 1108.03 2909.01 1111.2 2909.1C1114.36 2909.2 1117.63 2909.28 1120.82 2909.11C1127.18 2908.78 1133.32 2907.44 1137.66 2903.08L1136.95 2902.37C1132.88 2906.46 1127.06 2907.78 1120.77 2908.11C1117.62 2908.28 1114.39 2908.2 1111.23 2908.1C1108.07 2908.01 1104.98 2907.9 1102.16 2908.02L1102.2 2909.02ZM1137.38 2903.22C1155.29 2900.66 1174.05 2890.72 1179.21 2874.19L1178.26 2873.89C1173.26 2889.87 1155 2899.69 1137.24 2902.23L1137.38 2903.22ZM477.38 2669.73C471.647 2687.85 465.007 2706.57 464.827 2725.87L465.826 2725.88C466.006 2706.77 472.58 2688.22 478.333 2670.03L477.38 2669.73ZM465.582 2725.44C448.703 2715.41 429.699 2715.28 411.475 2720.37C393.255 2725.45 375.775 2735.76 361.878 2746.67L362.495 2747.46C376.324 2736.6 393.688 2726.37 411.744 2721.33C429.795 2716.29 448.498 2716.45 465.071 2726.3L465.582 2725.44ZM362.681 2747.13C363.666 2740.23 362.027 2733.53 360.464 2726.98C358.892 2720.4 357.397 2713.96 358.517 2707.4L357.532 2707.23C356.372 2714.02 357.927 2720.66 359.491 2727.22C361.063 2733.8 362.645 2740.31 361.692 2746.99L362.681 2747.13ZM358.485 2707.51C362.705 2697.47 367.682 2687.27 371.083 2676.77C374.491 2666.25 376.343 2655.36 374.309 2643.87L373.324 2644.04C375.319 2655.32 373.51 2666.03 370.132 2676.46C366.748 2686.91 361.814 2697.01 357.564 2707.12L358.485 2707.51ZM373.732 2644.45C410.911 2650.8 448.671 2650.4 485.948 2646.51L485.845 2645.52C448.626 2649.4 410.964 2649.79 373.901 2643.46L373.732 2644.45ZM485.428 2645.84C482.503 2653.71 479.979 2661.73 477.381 2669.73L478.332 2670.04C480.934 2662.02 483.45 2654.03 486.365 2646.19L485.428 2645.84ZM490.211 2780.54C491.852 2783.76 493.372 2787.24 494.931 2790.8C496.489 2794.35 498.086 2797.98 499.874 2801.46C503.448 2808.41 507.814 2814.84 514.245 2818.99L514.788 2818.15C508.576 2814.14 504.31 2807.9 500.764 2801C498.992 2797.56 497.406 2793.96 495.847 2790.4C494.291 2786.85 492.759 2783.34 491.102 2780.09L490.211 2780.54ZM514.034 2818.7C521.095 2844.81 529.02 2870.63 535.15 2896.95L536.123 2896.72C529.989 2870.38 522.048 2844.5 514.999 2818.44L514.034 2818.7ZM535.146 2896.93C537.595 2909.52 541.25 2922.37 539.441 2935.16L540.432 2935.3C542.271 2922.29 538.552 2909.2 536.127 2896.74L535.146 2896.93ZM539.804 2934.75C536.919 2935.54 534.73 2936.2 533.01 2938.44L533.803 2939.05C535.295 2937.11 537.162 2936.51 540.069 2935.71L539.804 2934.75ZM533.302 2938.25C472.021 2951.31 404.748 2953.34 348.213 2923.07L347.74 2923.95C404.581 2954.39 472.136 2952.31 533.511 2939.23L533.302 2938.25ZM348.433 2923.31C338.975 2902.16 337.947 2879.18 340.108 2855.95C342.271 2832.69 347.611 2809.32 350.858 2787.24L349.869 2787.09C346.639 2809.05 341.277 2832.58 339.112 2855.86C336.945 2879.17 337.962 2902.34 347.52 2923.72L348.433 2923.31ZM350.863 2787.18C351.055 2780.09 353.511 2775.31 356.105 2770.54C358.701 2765.76 361.451 2760.98 362.035 2753.98L361.038 2753.9C360.474 2760.65 357.833 2765.27 355.227 2770.06C352.62 2774.86 350.063 2779.81 349.864 2787.15L350.863 2787.18ZM361.786 2754.38C376.982 2745.63 396.363 2735.55 415.523 2731.57C434.669 2727.59 453.506 2729.7 467.758 2745.22L468.495 2744.54C453.916 2728.67 434.659 2726.57 415.319 2730.59C395.992 2734.61 376.494 2744.75 361.287 2753.51L361.786 2754.38ZM467.67 2745.09C468.665 2747.3 469.577 2749.72 470.558 2752.19C471.535 2754.65 472.577 2757.15 473.822 2759.48C476.31 2764.14 479.639 2768.18 484.961 2769.93L485.272 2768.98C480.301 2767.35 477.137 2763.56 474.704 2759.01C473.488 2756.73 472.462 2754.27 471.487 2751.82C470.516 2749.37 469.589 2746.92 468.583 2744.68L467.67 2745.09ZM484.675 2769.69C486.592 2773.28 488.419 2776.91 490.208 2780.53L491.105 2780.09C489.314 2776.46 487.481 2772.82 485.558 2769.22L484.675 2769.69ZM540.455 2935.06C540.453 2935.06 540.46 2935.05 540.473 2935.03C540.485 2935.01 540.496 2935 540.497 2935L541.216 2935.69C541.292 2935.61 541.33 2935.55 541.358 2935.49L540.455 2935.06ZM540.912 2934.85C540.913 2934.85 540.922 2934.85 540.935 2934.85C540.945 2934.85 540.975 2934.86 541.012 2934.88C541.037 2934.89 541.132 2934.93 541.207 2935.04C541.249 2935.1 541.286 2935.18 541.293 2935.29C541.3 2935.39 541.276 2935.47 541.243 2935.54C541.186 2935.65 541.102 2935.71 541.08 2935.72C541.047 2935.75 541.021 2935.76 541.013 2935.76C540.995 2935.77 540.992 2935.77 541.015 2935.76L540.798 2934.78C540.751 2934.79 540.695 2934.81 540.641 2934.83C540.614 2934.84 540.574 2934.86 540.531 2934.89C540.498 2934.91 540.407 2934.97 540.347 2935.09C540.266 2935.26 540.278 2935.46 540.385 2935.61C540.464 2935.72 540.565 2935.77 540.602 2935.79C540.685 2935.83 540.766 2935.84 540.801 2935.84L540.912 2934.85ZM560.476 2943.16C560.318 2940.36 558.923 2937.55 556.61 2935.88L556.023 2936.69C558.07 2938.17 559.335 2940.69 559.477 2943.22L560.476 2943.16ZM556.814 2936.34C557.853 2926.42 555.884 2916.17 553.805 2906.58L552.828 2906.79C554.909 2916.39 556.84 2926.49 555.819 2936.23L556.814 2936.34ZM552.948 2907.02C557.979 2912.5 559.445 2919.6 559.844 2927.15C560.043 2930.92 559.975 2934.78 559.962 2938.6C559.95 2942.41 559.993 2946.16 560.421 2949.69L561.414 2949.57C560.994 2946.11 560.95 2942.41 560.962 2938.6C560.975 2934.81 561.044 2930.91 560.842 2927.1C560.44 2919.47 558.954 2912.08 553.685 2906.34L552.948 2907.02ZM560.418 2949.62C560.383 2951.05 560.53 2952.57 560.662 2954.05C560.795 2955.55 560.914 2957.01 560.84 2958.39C560.767 2959.76 560.503 2961 559.896 2962.07C559.294 2963.12 558.334 2964.04 556.804 2964.72L557.209 2965.63C558.917 2964.87 560.048 2963.82 560.765 2962.56C561.477 2961.31 561.761 2959.9 561.839 2958.44C561.917 2956.98 561.79 2955.45 561.658 2953.96C561.524 2952.46 561.384 2951 561.417 2949.64L560.418 2949.62ZM556.722 2964.76C536.595 2978.68 512.176 2985.18 488.059 2987.99L488.174 2988.98C512.377 2986.16 536.978 2979.63 557.291 2965.58L556.722 2964.76ZM488.06 2987.99C435.446 2994.01 380.75 2984.34 333.747 2959.88L333.286 2960.77C380.471 2985.32 435.367 2995.03 488.173 2988.98L488.06 2987.99ZM333.919 2960.03C332.383 2957.94 331.341 2955 330.644 2951.54C329.948 2948.1 329.604 2944.18 329.435 2940.16C329.266 2936.14 329.274 2932.05 329.277 2928.24C329.281 2924.45 329.281 2920.93 329.095 2918.11L328.098 2918.18C328.281 2920.96 328.281 2924.44 328.277 2928.24C328.274 2932.04 328.266 2936.16 328.436 2940.2C328.606 2944.24 328.953 2948.22 329.664 2951.74C330.373 2955.26 331.453 2958.36 333.114 2960.62L333.919 2960.03ZM328.1 2918.2C329.212 2927.42 335.658 2934.9 345.026 2940.95C354.4 2946.99 366.775 2951.64 379.914 2955.16C406.196 2962.2 435.663 2964.77 450.631 2964.92L450.642 2963.92C435.739 2963.77 406.358 2961.21 380.173 2954.19C367.079 2950.68 354.817 2946.07 345.568 2940.1C336.314 2934.14 330.153 2926.87 329.093 2918.08L328.1 2918.2ZM450.633 2964.92C458.959 2964.98 486.272 2964.14 511.532 2961.06C524.159 2959.51 536.3 2957.41 545.306 2954.55C549.805 2953.13 553.556 2951.51 556.196 2949.66C558.829 2947.81 560.452 2945.67 560.476 2943.2L559.477 2943.19C559.457 2945.19 558.15 2947.07 555.623 2948.84C553.104 2950.6 549.465 2952.19 545.004 2953.6C536.088 2956.42 524.02 2958.52 511.411 2960.06C486.199 2963.15 458.929 2963.98 450.64 2963.92L450.633 2964.92ZM504.336 1702.39C497.271 1701.69 490.258 1702.18 483.295 1703.19L483.438 1704.18C490.355 1703.18 497.282 1702.7 504.237 1703.39L504.336 1702.39ZM483.648 1703.27C473.497 1696.37 465.438 1684.09 458.968 1668.71C452.502 1653.34 447.648 1634.94 443.871 1615.88C436.316 1577.74 433.091 1537.09 429.862 1512.89L428.871 1513.02C432.09 1537.14 435.327 1577.9 442.891 1616.07C446.673 1635.16 451.543 1653.64 458.046 1669.09C464.544 1684.54 472.698 1697.04 483.085 1704.1L483.648 1703.27ZM429.243 1513.44C458.738 1520.98 489.972 1518.94 518.59 1509.03L518.263 1508.08C489.815 1517.94 458.781 1519.95 429.49 1512.47L429.243 1513.44ZM517.929 1508.6C518.217 1511.42 519.973 1513.57 522.16 1514.53C524.352 1515.5 526.993 1515.28 528.985 1513.34L528.288 1512.62C526.621 1514.24 524.426 1514.44 522.563 1513.62C520.693 1512.79 519.174 1510.95 518.924 1508.5L517.929 1508.6ZM528.201 1513.23C547.596 1547.75 576.607 1575.38 606.488 1600.05L607.125 1599.28C577.27 1574.63 548.375 1547.1 529.072 1512.74L528.201 1513.23ZM607.285 1599.52C607.236 1599.36 607.175 1599.2 607.085 1599.08C607.039 1599.01 606.963 1598.93 606.846 1598.87C606.713 1598.81 606.555 1598.79 606.403 1598.85C606.27 1598.89 606.184 1598.98 606.137 1599.04C606.087 1599.1 606.053 1599.16 606.03 1599.21C605.984 1599.32 605.956 1599.43 605.938 1599.52C605.92 1599.62 605.91 1599.73 605.912 1599.83C605.912 1599.88 605.915 1599.93 605.924 1599.99C605.933 1600.04 605.949 1600.12 605.988 1600.19C606.023 1600.27 606.111 1600.41 606.297 1600.48C606.5 1600.55 606.677 1600.48 606.774 1600.42C606.865 1600.37 606.928 1600.3 606.968 1600.25C607.011 1600.19 607.05 1600.13 607.085 1600.06L606.208 1599.58C606.199 1599.6 606.191 1599.61 606.185 1599.62C606.182 1599.63 606.18 1599.63 606.179 1599.63C606.177 1599.63 606.176 1599.63 606.176 1599.63C606.176 1599.63 606.176 1599.63 606.177 1599.63C606.177 1599.63 606.178 1599.63 606.179 1599.63C606.182 1599.63 606.185 1599.62 606.191 1599.62C606.2 1599.61 606.22 1599.59 606.251 1599.57C606.282 1599.55 606.333 1599.53 606.402 1599.52C606.475 1599.5 606.557 1599.51 606.639 1599.54C606.799 1599.6 606.867 1599.71 606.886 1599.75C606.898 1599.78 606.904 1599.8 606.907 1599.81C606.91 1599.82 606.911 1599.83 606.912 1599.83C606.913 1599.83 606.912 1599.83 606.911 1599.82C606.911 1599.79 606.914 1599.74 606.922 1599.7C606.926 1599.68 606.93 1599.66 606.935 1599.65C606.937 1599.64 606.938 1599.63 606.94 1599.63C606.941 1599.63 606.942 1599.62 606.942 1599.62C606.942 1599.62 606.94 1599.63 606.937 1599.63C606.933 1599.64 606.926 1599.65 606.915 1599.67C606.896 1599.69 606.841 1599.75 606.741 1599.79C606.688 1599.81 606.627 1599.82 606.563 1599.81C606.5 1599.81 606.445 1599.79 606.402 1599.77C606.322 1599.73 606.284 1599.68 606.278 1599.67C606.269 1599.66 606.272 1599.66 606.284 1599.68C606.295 1599.71 606.31 1599.75 606.328 1599.81L607.285 1599.52ZM606.188 1599.62C604.409 1603.7 600.257 1604.73 595.433 1605.46C593.063 1605.81 590.537 1606.09 588.209 1606.67C585.872 1607.24 583.668 1608.13 581.928 1609.73L582.605 1610.46C584.169 1609.02 586.189 1608.2 588.448 1607.64C590.716 1607.08 593.158 1606.81 595.582 1606.44C600.346 1605.73 605.08 1604.66 607.105 1600.02L606.188 1599.62ZM581.968 1609.69C577.534 1613 576.552 1618.83 579.433 1622.77L580.24 1622.18C577.721 1618.73 578.519 1613.51 582.565 1610.5L581.968 1609.69ZM579.366 1622.3C575.75 1632.3 576.82 1643.39 577.428 1654.18C578.039 1665.03 578.188 1675.6 572.922 1684.82L573.791 1685.32C579.22 1675.81 579.036 1664.96 578.426 1654.13C577.813 1643.24 576.776 1632.4 580.307 1622.64L579.366 1622.3ZM572.978 1684.75C571.8 1686.11 570.449 1687.28 569.091 1688.54C567.746 1689.79 566.409 1691.11 565.339 1692.73L566.174 1693.28C567.173 1691.77 568.435 1690.51 569.771 1689.28C571.096 1688.05 572.51 1686.82 573.735 1685.4L572.978 1684.75ZM566.039 1692.59C562.368 1690.08 558.756 1689.51 555.193 1690.11C551.654 1690.7 548.182 1692.43 544.759 1694.47C541.294 1696.52 537.947 1698.84 534.478 1700.75C531.036 1702.65 527.599 1704.07 524.105 1704.28L524.168 1705.28C527.881 1705.05 531.472 1703.55 534.96 1701.63C538.422 1699.72 541.911 1697.32 545.269 1695.33C548.67 1693.31 552.01 1691.66 555.358 1691.09C558.68 1690.54 562.028 1691.05 565.474 1693.42L566.039 1692.59ZM524.136 1705.28C524.234 1705.28 524.358 1705.28 524.496 1705.27L524.397 1704.27C524.315 1704.28 524.239 1704.28 524.136 1704.28V1705.28ZM524.391 1704.28C522.22 1704.52 518.701 1704.4 516.786 1704.13L516.647 1705.12C518.632 1705.4 522.235 1705.52 524.502 1705.27L524.391 1704.28ZM516.793 1704.13C512.664 1703.49 508.523 1702.81 504.336 1702.39L504.237 1703.39C508.39 1703.8 512.499 1704.47 516.64 1705.12L516.793 1704.13ZM531.261 1012.86C534.279 993.177 537.797 973.62 542.363 954.257L541.39 954.028C536.816 973.425 533.294 993.01 530.272 1012.71L531.261 1012.86ZM541.791 954.635C542.976 954.841 543.983 955.683 544.847 957.001C545.709 958.318 546.384 960.047 546.92 961.897C547.995 965.608 548.466 969.625 548.825 971.535L549.808 971.35C549.467 969.541 548.973 965.388 547.88 961.619C547.333 959.728 546.624 957.89 545.683 956.454C544.744 955.02 543.532 953.923 541.962 953.65L541.791 954.635ZM548.828 971.55C572.398 1078.2 562.195 1187.97 552.088 1295.72L553.083 1295.81C563.188 1188.09 573.413 1078.16 549.805 971.334L548.828 971.55ZM552.087 1295.72C549.638 1324.62 547.618 1353.56 546.037 1382.53L547.036 1382.58C548.615 1353.63 550.635 1324.69 553.084 1295.81L552.087 1295.72ZM546.042 1382.48C544.983 1389.39 548.46 1394.01 553.117 1397.77C555.44 1399.64 558.082 1401.32 560.627 1402.97C563.185 1404.63 565.643 1406.26 567.654 1408.06L568.319 1407.31C566.243 1405.46 563.722 1403.79 561.172 1402.13C558.61 1400.47 556.018 1398.82 553.745 1396.99C549.211 1393.33 546.05 1389.03 547.031 1382.63L546.042 1382.48ZM567.509 1407.53C564.671 1416.67 561.318 1425.74 557.916 1434.82C554.515 1443.89 551.065 1452.98 548.043 1462.14C541.999 1480.47 537.652 1499.15 538.817 1518.73L539.816 1518.67C538.661 1499.27 542.964 1480.74 548.993 1462.46C552.007 1453.32 555.449 1444.25 558.852 1435.17C562.254 1426.09 565.617 1417 568.464 1407.83L567.509 1407.53ZM539.655 1518.34C536.607 1515.54 533.589 1512.71 530.591 1509.86L529.902 1510.59C532.904 1513.44 535.926 1516.27 538.978 1519.07L539.655 1518.34ZM530.724 1510.37C531.488 1507.91 532.142 1505.44 532.695 1502.96L531.718 1502.74C531.171 1505.2 530.525 1507.64 529.769 1510.08L530.724 1510.37ZM532.437 1503.3C534.452 1502.25 535.768 1500.28 536.157 1498.21C536.547 1496.13 536.01 1493.89 534.258 1492.34L533.595 1493.09C535.042 1494.37 535.511 1496.23 535.175 1498.02C534.837 1499.82 533.694 1501.51 531.976 1502.41L532.437 1503.3ZM534.426 1492.72C535.041 1412.87 527.857 1332.67 523.718 1252.58C519.579 1172.47 518.484 1092.44 531.26 1012.86L530.273 1012.7C517.48 1092.39 518.579 1172.5 522.72 1252.63C526.861 1332.77 534.041 1412.9 533.427 1492.71L534.426 1492.72ZM824.738 711.518C826.077 709.136 827.927 708.171 829.796 708.103C831.696 708.033 833.688 708.888 835.256 710.288C836.823 711.688 837.914 713.586 838.071 715.532C838.226 717.451 837.48 719.484 835.245 721.218L835.858 722.008C838.337 720.084 839.252 717.734 839.067 715.452C838.885 713.196 837.637 711.074 835.922 709.542C834.208 708.011 831.974 707.022 829.76 707.103C827.516 707.185 825.363 708.366 823.867 711.028L824.738 711.518ZM835.237 721.225C832.194 723.689 828.56 722.925 826.153 720.669C823.74 718.408 822.678 714.754 824.724 711.542L823.881 711.005C821.515 714.718 822.795 718.893 825.469 721.399C828.149 723.911 832.345 724.854 835.866 722.002L835.237 721.225ZM852.45 828.961C853.879 827.103 855.642 826.27 857.402 826.154C859.175 826.038 860.981 826.648 862.466 827.745C865.443 829.944 867.009 833.977 864.544 837.77L865.383 838.315C868.209 833.966 866.347 829.368 863.06 826.94C861.414 825.724 859.379 825.022 857.336 825.156C855.281 825.291 853.256 826.272 851.657 828.352L852.45 828.961ZM864.513 837.825C863.006 840.954 861.172 842.428 859.426 842.849C857.68 843.269 855.891 842.669 854.399 841.367C851.395 838.745 849.796 833.449 852.484 828.911L851.623 828.402C848.659 833.407 850.423 839.224 853.741 842.12C855.41 843.577 857.522 844.336 859.66 843.821C861.797 843.307 863.829 841.551 865.414 838.259L864.513 837.825ZM871.491 932.033C874.362 932.041 876.305 933.254 877.476 934.999C878.661 936.766 879.082 939.122 878.789 941.426C878.495 943.729 877.496 945.917 875.92 947.352C874.361 948.771 872.211 949.484 869.511 948.819L869.272 949.79C872.297 950.535 874.789 949.735 876.593 948.091C878.379 946.464 879.464 944.04 879.781 941.552C880.097 939.064 879.654 936.452 878.307 934.442C876.945 932.412 874.687 931.042 871.494 931.033L871.491 932.033ZM869.507 948.818C864.943 947.737 862.998 943.537 863.442 939.537C863.885 935.544 866.686 931.944 871.483 932.033L871.502 931.033C866.055 930.932 862.932 935.065 862.448 939.427C861.965 943.783 864.091 948.563 869.276 949.791L869.507 948.818ZM881.912 1055.62C883.231 1051.16 887.243 1049.5 890.976 1050.13C894.714 1050.76 898.05 1053.66 898.002 1058.26L899.002 1058.27C899.057 1053.08 895.262 1049.84 891.142 1049.14C887.017 1048.45 882.443 1050.29 880.953 1055.34L881.912 1055.62ZM898.003 1058.25C897.915 1061.42 896.687 1063.49 894.994 1064.68C893.285 1065.88 891.039 1066.24 888.855 1065.84C886.671 1065.43 884.598 1064.28 883.243 1062.53C881.899 1060.8 881.242 1058.45 881.919 1055.6L880.946 1055.37C880.2 1058.51 880.921 1061.17 882.453 1063.14C883.976 1065.11 886.279 1066.38 888.673 1066.82C891.066 1067.26 893.599 1066.89 895.57 1065.5C897.556 1064.1 898.908 1061.71 899.002 1058.28L898.003 1058.25ZM905.447 1175.16C906.409 1172.28 908.033 1170.55 909.868 1169.69C911.711 1168.84 913.824 1168.84 915.807 1169.56C919.78 1170.98 923.14 1175.22 922.525 1180.76L923.518 1180.87C924.189 1174.83 920.52 1170.19 916.145 1168.61C913.954 1167.83 911.564 1167.8 909.447 1168.79C907.323 1169.77 905.532 1171.75 904.498 1174.85L905.447 1175.16ZM922.536 1180.93C922.912 1182.44 922.475 1184.4 921.476 1186.39C920.485 1188.37 918.981 1190.29 917.355 1191.66C915.709 1193.06 914.032 1193.82 912.681 1193.67C912.025 1193.6 911.423 1193.32 910.902 1192.74C910.374 1192.16 909.914 1191.26 909.599 1189.95L908.626 1190.18C908.967 1191.6 909.486 1192.67 910.161 1193.41C910.845 1194.17 911.673 1194.57 912.574 1194.67C914.339 1194.86 916.289 1193.88 918.001 1192.43C919.733 1190.96 921.32 1188.93 922.37 1186.84C923.412 1184.76 923.967 1182.53 923.507 1180.69L922.536 1180.93ZM909.497 1189.74C906.082 1185.63 904.484 1180.35 905.464 1175.1L904.481 1174.91C903.441 1180.49 905.143 1186.06 908.728 1190.38L909.497 1189.74ZM929.473 1313.15C929.488 1313.13 929.503 1313.11 929.518 1313.09C929.533 1313.07 929.548 1313.05 929.563 1313.03L928.763 1312.43C928.748 1312.45 928.733 1312.47 928.718 1312.49C928.703 1312.51 928.688 1312.53 928.673 1312.55L929.473 1313.15ZM928.95 1313.19C930.904 1314.11 931.963 1315.84 932.321 1317.89C932.681 1319.96 932.321 1322.31 931.448 1324.36C930.573 1326.41 929.213 1328.07 927.642 1328.84C926.116 1329.58 924.318 1329.5 922.399 1327.94L921.766 1328.71C923.961 1330.5 926.172 1330.66 928.078 1329.74C929.939 1328.83 931.435 1326.93 932.368 1324.75C933.304 1322.56 933.705 1320.01 933.306 1317.72C932.906 1315.43 931.688 1313.37 929.375 1312.28L928.95 1313.19ZM922.343 1327.9C918.631 1325.63 917.997 1320.85 919.504 1317.13C920.252 1315.28 921.506 1313.76 923.091 1312.99C924.658 1312.22 926.608 1312.15 928.844 1313.3L929.301 1312.41C926.813 1311.13 924.53 1311.17 922.652 1312.09C920.794 1313 919.394 1314.74 918.577 1316.75C916.956 1320.76 917.551 1326.14 921.822 1328.75L922.343 1327.9ZM939.952 1425.12C942.339 1427.47 943.186 1430.13 943 1432.65C942.814 1435.19 941.578 1437.62 939.734 1439.47C937.89 1441.32 935.464 1442.56 932.932 1442.74C930.415 1442.93 927.754 1442.08 925.399 1439.67L924.684 1440.37C927.239 1442.98 930.185 1443.95 933.006 1443.74C935.811 1443.54 938.454 1442.17 940.442 1440.18C942.43 1438.18 943.791 1435.53 943.998 1432.72C944.206 1429.9 943.244 1426.96 940.653 1424.41L939.952 1425.12ZM925.391 1439.67C923.002 1437.32 922.152 1434.67 922.336 1432.15C922.52 1429.61 923.754 1427.18 925.598 1425.33C927.441 1423.48 929.868 1422.24 932.402 1422.05C934.921 1421.87 937.586 1422.72 939.946 1425.12L940.659 1424.41C938.099 1421.81 935.149 1420.85 932.328 1421.06C929.52 1421.26 926.877 1422.63 924.889 1424.63C922.902 1426.62 921.543 1429.27 921.338 1432.07C921.133 1434.89 922.097 1437.84 924.692 1440.38L925.391 1439.67ZM1186.41 1491.31C1186.54 1491.6 1186.69 1491.91 1186.87 1492.21L1187.73 1491.7C1187.58 1491.45 1187.45 1491.18 1187.32 1490.9L1186.41 1491.31ZM1187.62 1491.57C1187.36 1491.35 1187.1 1491.13 1186.84 1490.91L1186.19 1491.68C1186.45 1491.9 1186.71 1492.11 1186.97 1492.33L1187.62 1491.57ZM1186.76 1491.73C1186.83 1491.69 1187 1491.6 1187.12 1491.53L1186.61 1490.67C1186.49 1490.74 1186.42 1490.78 1186.27 1490.86L1186.76 1491.73ZM1195.36 1263.47C1179.1 1199.39 1152.94 1138.41 1127.49 1077.66L1126.56 1078.05C1152.02 1138.81 1178.15 1199.72 1194.39 1263.72L1195.36 1263.47ZM1127.5 1077.69C1100.01 997.082 1091.95 911.7 1082.12 827.495L1081.13 827.611C1090.96 911.775 1099.03 997.281 1126.55 1078.01L1127.5 1077.69ZM1082.12 827.497C1076.72 780.001 1070.87 732.542 1059.92 685.908L1058.95 686.137C1069.88 732.707 1075.72 780.114 1081.13 827.61L1082.12 827.497ZM1059.93 685.969C1057.6 664.164 1050.31 647.192 1039.59 633.797C1028.87 620.406 1014.73 610.615 998.752 603.138C966.813 588.194 927.374 582.448 892.822 575.723L892.631 576.704C927.266 583.445 966.533 589.167 998.328 604.044C1014.21 611.476 1028.21 621.183 1038.8 634.422C1049.4 647.656 1056.62 664.445 1058.94 686.076L1059.93 685.969ZM893.226 576.22C893.25 574.38 893.41 572.487 893.522 570.561C893.633 568.648 893.697 566.718 893.52 564.863C893.162 561.13 891.821 557.67 887.934 555.192L887.397 556.035C890.949 558.3 892.187 561.432 892.524 564.958C892.694 566.733 892.635 568.599 892.524 570.503C892.413 572.394 892.251 574.337 892.227 576.207L893.226 576.22ZM888.022 555.263C886.272 553.485 882.672 550.812 878.176 547.955C873.67 545.091 868.229 542.02 862.773 539.452C857.324 536.887 851.833 534.81 847.235 533.953C844.936 533.524 842.832 533.394 841.055 533.677C839.273 533.961 837.785 534.666 836.784 535.934L837.569 536.553C838.369 535.54 839.595 534.922 841.212 534.665C842.834 534.407 844.813 534.518 847.051 534.936C851.527 535.771 856.929 537.806 862.348 540.357C867.761 542.905 873.165 545.955 877.64 548.799C882.126 551.65 885.644 554.273 887.309 555.964L888.022 555.263ZM837.639 536.053C834.834 529.233 833.459 521.654 832.118 514.303L831.135 514.482C832.472 521.812 833.862 529.498 836.714 536.434L837.639 536.053ZM832.104 514.244C831.892 513.563 831.706 512.437 831.493 511.08C831.283 509.742 831.052 508.209 830.749 506.769C830.448 505.335 830.067 503.949 829.545 502.917C829.037 501.914 828.293 501.055 827.195 501.083L827.22 502.082C827.695 502.07 828.178 502.43 828.653 503.369C829.114 504.279 829.473 505.558 829.77 506.974C830.066 508.384 830.293 509.887 830.505 511.235C830.713 512.564 830.911 513.774 831.149 514.541L832.104 514.244ZM826.708 501.565C826.54 506.432 825.898 511.865 825.284 517.539C824.672 523.204 824.089 529.098 824.05 534.845C823.972 546.328 826.064 557.346 834.556 564.838L835.217 564.088C827.058 556.89 824.973 546.248 825.05 534.852C825.089 529.16 825.666 523.311 826.279 517.647C826.89 511.993 827.538 506.513 827.707 501.6L826.708 501.565ZM834.468 564.189C829.474 571.802 824.856 580.283 819.904 588.274C814.932 596.297 809.584 603.897 803.048 609.916L803.725 610.651C810.362 604.54 815.767 596.846 820.754 588.8C825.76 580.722 830.305 572.358 835.305 564.738L834.468 564.189ZM803.756 610.62C803.752 610.625 803.748 610.628 803.751 610.626C803.751 610.625 803.752 610.625 803.753 610.624C803.754 610.623 803.755 610.621 803.757 610.62C803.76 610.617 803.765 610.612 803.77 610.607L803.063 609.9C803.063 609.9 803.063 609.9 803.061 609.902C803.06 609.902 803.056 609.907 803.052 609.91C803.045 609.918 803.031 609.931 803.017 609.947L803.756 610.62ZM803.144 609.834C802.498 610.254 801.84 610.637 801.16 611.002L801.633 611.883C802.333 611.508 803.015 611.11 803.689 610.673L803.144 609.834ZM801.712 611.83C801.728 611.818 801.752 611.797 801.777 611.769C801.796 611.748 801.85 611.688 801.884 611.594C801.924 611.482 801.946 611.279 801.8 611.101C801.687 610.963 801.542 610.932 801.502 610.924C801.407 610.906 801.325 610.919 801.308 610.921C801.274 610.926 801.241 610.933 801.214 610.939C801.111 610.963 800.964 611.01 800.809 611.06C800.47 611.171 800.073 611.309 799.674 611.437L799.979 612.39C800.36 612.267 800.828 612.106 801.119 612.011C801.279 611.958 801.388 611.926 801.443 611.913C801.455 611.91 801.456 611.91 801.448 611.911C801.444 611.912 801.432 611.913 801.415 611.914C801.401 611.915 801.362 611.916 801.312 611.906C801.278 611.899 801.137 611.87 801.027 611.735C800.883 611.559 800.905 611.36 800.944 611.253C800.976 611.164 801.026 611.109 801.039 611.094C801.059 611.073 801.075 611.059 801.081 611.054L801.712 611.83ZM799.733 611.422C798.927 611.576 797.811 611.509 796.644 611.29C795.485 611.071 794.326 610.712 793.452 610.317L793.04 611.228C793.996 611.66 795.232 612.041 796.459 612.272C797.676 612.501 798.936 612.592 799.92 612.405L799.733 611.422ZM793.246 611.272H793.267V610.272H793.246V611.272ZM793.514 610.338C748.168 584.564 703.791 556.96 659.887 528.682L659.346 529.523C703.258 557.806 747.651 585.421 793.019 611.207L793.514 610.338ZM660.031 529.382C661.651 526.985 663.353 522.326 664.875 516.655C666.403 510.963 667.768 504.186 668.691 497.504C669.614 490.825 670.1 484.222 669.862 478.882C669.743 476.213 669.444 473.841 668.919 471.926C668.398 470.024 667.637 468.501 666.542 467.614L665.913 468.391C666.765 469.081 667.453 470.359 667.955 472.19C668.452 474.007 668.746 476.297 668.863 478.927C669.097 484.183 668.619 490.721 667.701 497.368C666.782 504.012 665.426 510.747 663.909 516.396C662.387 522.067 660.72 526.578 659.202 528.822L660.031 529.382ZM665.749 467.857C660.303 485.812 654.643 503.789 646.397 520.643L647.296 521.082C655.58 504.148 661.26 486.099 666.706 468.148L665.749 467.857ZM647.086 520.423C643.534 518.485 638.778 515.708 634.152 514.591C631.83 514.031 629.5 513.877 627.343 514.479C625.172 515.086 623.219 516.447 621.649 518.838L622.484 519.387C623.931 517.185 625.689 515.98 627.612 515.442C629.548 514.901 631.693 515.026 633.917 515.563C638.382 516.641 642.999 519.332 646.607 521.301L647.086 520.423ZM621.637 518.856C613.963 531.727 611.723 550.46 621.011 563.364L621.822 562.78C612.844 550.305 614.95 532.026 622.496 519.368L621.637 518.856ZM621.233 562.607C601.643 570.327 581.277 575.541 560.726 580.339C540.185 585.134 519.446 589.516 499.164 595.565L499.449 596.524C519.694 590.485 540.384 586.115 560.953 581.313C581.512 576.513 601.938 571.286 621.6 563.538L621.233 562.607ZM499.182 595.56C481.572 600.075 462.79 603.463 446.162 611.342L446.591 612.245C463.103 604.421 481.721 601.069 499.431 596.529L499.182 595.56ZM446.134 611.356C421.275 625.148 408.866 649.025 401.99 675.603C395.119 702.163 393.749 731.535 391.046 756.347L392.041 756.456C394.753 731.554 396.111 702.32 402.958 675.853C409.801 649.405 422.101 625.834 446.619 612.231L446.134 611.356ZM391.044 756.373C384.099 877.309 369.602 1000.42 365.474 1122.88C361.345 1245.36 367.582 1367.31 402.114 1486.07L403.075 1485.79C368.584 1367.17 362.347 1245.35 366.474 1122.91C370.602 1000.44 385.091 877.48 392.043 756.43L391.044 756.373ZM402.125 1486.1C403.459 1489.77 405.111 1493.36 406.805 1496.92C408.501 1500.49 410.237 1504.02 411.756 1507.59L412.677 1507.2C411.146 1503.6 409.397 1500.04 407.708 1496.49C406.016 1492.94 404.382 1489.38 403.064 1485.76L402.125 1486.1ZM411.757 1507.59C412.434 1509.18 413.678 1509.98 415.046 1510.14C416.387 1510.29 417.815 1509.84 418.935 1509L418.338 1508.2C417.388 1508.91 416.211 1509.27 415.162 1509.14C414.14 1509.02 413.209 1508.45 412.676 1507.2L411.757 1507.59ZM418.381 1509.03C420.758 1510.45 423.362 1511.57 426.078 1512.48L426.395 1511.53C423.731 1510.64 421.195 1509.54 418.892 1508.17L418.381 1509.03ZM425.738 1511.97C423.478 1542.82 420.813 1586.49 426.171 1627.05C431.525 1667.58 444.913 1705.17 474.901 1723.7L475.426 1722.85C445.844 1704.57 432.508 1667.39 427.162 1626.92C421.819 1586.47 424.475 1542.9 426.735 1512.04L425.738 1511.97ZM474.95 1723.73C479.749 1725.99 484.065 1725.2 488.358 1724.66L488.235 1723.67C483.868 1724.21 479.864 1724.94 475.377 1722.82L474.95 1723.73ZM488.361 1724.66C495.258 1723.76 503.439 1724.06 510.584 1725.4L510.769 1724.42C503.528 1723.06 495.241 1722.75 488.232 1723.67L488.361 1724.66ZM510.178 1724.88C505.839 1782.05 489.274 1836.77 470.988 1891.25C452.708 1945.72 432.702 1999.95 421.533 2056.09L422.514 2056.28C433.666 2000.23 453.642 1946.07 471.936 1891.57C490.225 1837.08 506.826 1782.26 511.175 1724.95L510.178 1724.88ZM421.539 2056.06C373.687 2245.78 342.774 2439.69 327.218 2634.69L328.215 2634.77C343.767 2439.83 374.672 2245.96 422.508 2056.31L421.539 2056.06ZM327.217 2634.71C326.923 2641.08 331.777 2645.1 337.021 2646C342.269 2646.89 348.125 2644.69 349.848 2638.45L348.885 2638.18C347.336 2643.79 342.087 2645.85 337.189 2645.01C332.286 2644.17 327.951 2640.48 328.216 2634.76L327.217 2634.71ZM349.227 2638.79C356.083 2640.78 363.038 2642.43 370.083 2643.77L370.27 2642.79C363.255 2641.45 356.33 2639.81 349.506 2637.83L349.227 2638.79ZM369.71 2643.1C366.023 2652.71 363.009 2662.31 358.781 2671.62L359.692 2672.03C363.934 2662.69 366.988 2652.98 370.643 2643.46L369.71 2643.1ZM358.779 2671.62C356.484 2676.85 353.253 2681.87 350.227 2687.04C347.214 2692.2 344.418 2697.5 343.08 2703.21L344.053 2703.44C345.355 2697.88 348.084 2692.69 351.091 2687.55C354.085 2682.42 357.369 2677.32 359.694 2672.02L358.779 2671.62ZM343.074 2703.24C341.474 2712.38 343.653 2721.23 345.375 2729.93C347.103 2738.67 348.383 2747.29 345.174 2756.18L346.115 2756.52C349.425 2747.34 348.086 2738.48 346.356 2729.74C344.619 2720.96 342.499 2712.33 344.059 2703.41L343.074 2703.24ZM345.145 2756.32C344.531 2766.36 341.941 2776.12 339.093 2785.89C336.249 2795.65 333.144 2805.45 331.543 2815.49L332.53 2815.65C334.118 2805.68 337.199 2795.97 340.053 2786.17C342.902 2776.39 345.522 2766.54 346.144 2756.38L345.145 2756.32ZM331.546 2815.47C326.564 2840.28 322.774 2866.01 324.077 2891.41L325.076 2891.36C323.779 2866.08 327.549 2840.45 332.527 2815.67L331.546 2815.47ZM324.095 2891.25C318.92 2909.87 319.167 2929.16 319.886 2947.94L320.885 2947.9C320.166 2929.12 319.929 2909.98 325.058 2891.52L324.095 2891.25ZM319.886 2947.95C320.074 2951 320.092 2954.55 320.651 2957.9C321.211 2961.27 322.327 2964.52 324.77 2967L325.483 2966.3C323.246 2964.03 322.182 2961.01 321.637 2957.74C321.09 2954.45 321.078 2951.02 320.885 2947.89L319.886 2947.95ZM324.814 2967.04C330.033 2971.22 336.117 2974.18 342.381 2976.75C345.514 2978.03 348.699 2979.21 351.846 2980.4C354.996 2981.58 358.108 2982.77 361.108 2984.05L361.503 2983.13C358.479 2981.84 355.348 2980.65 352.198 2979.46C349.046 2978.27 345.876 2977.09 342.76 2975.82C336.528 2973.27 330.546 2970.35 325.439 2966.26L324.814 2967.04ZM361.15 2984.07C426.158 3005.36 507.234 3011.37 567.008 2972.83L566.467 2971.99C507.065 3010.29 426.355 3004.38 361.461 2983.12L361.15 2984.07ZM567.048 2972.8C572.928 2968.13 573.973 2960.1 573.728 2951.78C573.605 2947.6 573.153 2943.29 572.79 2939.23C572.425 2935.16 572.151 2931.34 572.367 2928.1L571.37 2928.03C571.147 2931.36 571.43 2935.25 571.794 2939.32C572.159 2943.4 572.606 2947.67 572.728 2951.81C572.973 2960.12 571.892 2967.68 566.427 2972.01L567.048 2972.8ZM572.368 2928.08C572.574 2922.97 570.705 2913.43 567.07 2905.87C565.252 2902.08 562.966 2898.74 560.227 2896.7C557.461 2894.63 554.228 2893.9 550.627 2895.38L551.006 2896.31C554.238 2894.98 557.104 2895.62 559.63 2897.5C562.182 2899.4 564.381 2902.58 566.168 2906.3C569.744 2913.74 571.567 2923.12 571.369 2928.04L572.368 2928.08ZM551.301 2895.72C539.322 2849.28 519.859 2805.3 497.418 2763.17L496.535 2763.64C518.956 2805.73 538.381 2849.64 550.332 2895.97L551.301 2895.72ZM497.412 2763.65C499.289 2760.33 499.191 2757.05 498.192 2753.94C497.201 2750.85 495.311 2747.91 493.575 2745.25L492.738 2745.8C494.484 2748.47 496.296 2751.31 497.24 2754.24C498.177 2757.16 498.248 2760.14 496.541 2763.16L497.412 2763.65ZM493.576 2745.25C485.053 2732.14 485.365 2715.07 487.608 2697.24C488.732 2688.3 490.318 2679.31 491.512 2670.47C492.7 2661.67 493.484 2653.1 492.965 2645.22L491.968 2645.29C492.479 2653.07 491.707 2661.55 490.521 2670.34C489.341 2679.08 487.734 2688.22 486.616 2697.11C484.373 2714.95 484 2732.35 492.737 2745.79L493.576 2745.25ZM492.527 2645.75C505.42 2644.18 518.262 2642.1 531.014 2639.55L530.819 2638.57C518.091 2641.11 505.273 2643.19 492.406 2644.76L492.527 2645.75ZM531.014 2639.55C533.296 2639.1 534.996 2638.04 536.149 2636.62C537.298 2635.2 537.882 2633.46 537.986 2631.66C538.192 2628.08 536.502 2624.2 533.417 2622.11L532.856 2622.94C535.621 2624.81 537.176 2628.34 536.987 2631.6C536.894 2633.22 536.37 2634.76 535.372 2635.99C534.378 2637.21 532.892 2638.16 530.819 2638.57L531.014 2639.55ZM533.625 2622.63C597.224 2330.88 685.838 2044.79 793.813 1766.47L792.88 1766.11C684.889 2044.48 596.259 2330.61 532.648 2622.42L533.625 2622.63ZM792.847 1766.27C791.325 1796.58 790.068 1826.86 789.058 1857.23L790.057 1857.26C791.067 1826.9 792.324 1796.62 793.846 1766.32L792.847 1766.27ZM789.058 1857.23C788.384 1882.4 785.651 1907.39 782.792 1932.38C779.933 1957.36 776.947 1982.36 775.775 2007.51L776.774 2007.56C777.944 1982.44 780.925 1957.49 783.785 1932.49C786.644 1907.5 789.382 1882.48 790.057 1857.26L789.058 1857.23ZM775.783 2007.44C751.978 2137.8 721.723 2268.5 726.279 2402.06L727.278 2402.03C722.728 2268.61 752.949 2138.04 776.766 2007.62L775.783 2007.44ZM726.279 2402.05C727.307 2464.58 731.618 2527.03 735.537 2589.39L736.536 2589.33C732.615 2526.96 728.306 2464.53 727.278 2402.04L726.279 2402.05ZM735.537 2589.39C735.88 2596.81 742.529 2603.17 750.251 2601.52L750.042 2600.54C743.033 2602.04 736.855 2596.26 736.536 2589.34L735.537 2589.39ZM749.967 2601.5C768.451 2608.62 787.983 2613.09 807.73 2615.34L807.843 2614.35C788.17 2612.1 768.722 2607.65 750.326 2600.57L749.967 2601.5ZM807.288 2614.8C806.784 2620.54 807.057 2625.87 807.433 2630.89C807.81 2635.92 808.286 2640.61 808.206 2645.13C808.125 2649.63 807.489 2653.93 805.654 2658.15C803.819 2662.37 800.772 2666.54 795.83 2670.78L796.481 2671.54C801.519 2667.22 804.666 2662.93 806.571 2658.55C808.475 2654.17 809.124 2649.73 809.206 2645.14C809.287 2640.57 808.804 2635.81 808.43 2630.82C808.055 2625.81 807.788 2620.55 808.285 2614.89L807.288 2614.8ZM795.734 2670.89C786.925 2684.65 783.591 2705.53 783.018 2726.86C782.444 2748.22 784.636 2770.11 786.949 2785.95L787.938 2785.81C785.63 2770 783.446 2748.17 784.018 2726.89C784.59 2705.59 787.923 2684.95 796.577 2671.43L795.734 2670.89ZM786.954 2785.98C789.026 2796.12 792.592 2805.4 796.239 2814.96L797.174 2814.61C793.521 2805.03 789.987 2795.83 787.933 2785.78L786.954 2785.98ZM796.23 2814.93C797.571 2819.16 797.098 2823.39 796.51 2827.76C795.927 2832.1 795.229 2836.59 796.26 2841.15L797.235 2840.93C796.251 2836.58 796.912 2832.28 797.502 2827.89C798.087 2823.54 798.601 2819.09 797.183 2814.63L796.23 2814.93ZM796.251 2841.1C797.251 2849.26 801.083 2859.5 807.001 2867.41C812.914 2875.31 821.001 2880.99 830.512 2879.73L830.381 2878.74C821.392 2879.93 813.619 2874.58 807.802 2866.81C801.99 2859.05 798.222 2848.97 797.244 2840.98L796.251 2841.1ZM830.269 2879.7C935.821 2919.67 1058.26 2955.98 1169.48 2918.7L1169.16 2917.75C1058.32 2954.91 936.184 2918.73 830.624 2878.76L830.269 2879.7ZM1169.54 2918.68C1177.26 2914.83 1185.49 2909.78 1188.33 2900.94L1187.38 2900.63C1184.68 2909.04 1176.82 2913.93 1169.09 2917.78L1169.54 2918.68ZM1188.33 2900.93C1189.54 2897.02 1190.93 2887.74 1190.35 2879.71C1190.07 2875.7 1189.28 2871.93 1187.68 2869.29C1186.87 2867.97 1185.85 2866.91 1184.56 2866.26C1183.27 2865.61 1181.75 2865.39 1179.99 2865.69L1180.16 2866.68C1181.74 2866.41 1183.04 2866.61 1184.11 2867.15C1185.19 2867.7 1186.09 2868.6 1186.82 2869.81C1188.3 2872.25 1189.07 2875.82 1189.36 2879.78C1189.93 2887.69 1188.54 2896.85 1187.38 2900.64L1188.33 2900.93ZM1180.58 2866.16C1179.83 2846.18 1167.85 2833.07 1152.9 2822.33C1145.42 2816.96 1137.17 2812.17 1129.18 2807.4C1121.19 2802.62 1113.45 2797.88 1106.95 2792.59L1106.32 2793.37C1112.89 2798.71 1120.68 2803.49 1128.67 2808.26C1136.68 2813.03 1144.88 2817.8 1152.31 2823.14C1167.17 2833.82 1178.85 2846.68 1179.58 2866.2L1180.58 2866.16ZM1106.92 2792.57C1070.46 2767.54 1038.28 2737.12 1007.79 2705.2L1007.07 2705.89C1037.58 2737.83 1069.81 2768.3 1106.35 2793.39L1106.92 2792.57ZM1007.79 2705.19C990.18 2687.06 967.965 2669.88 941.348 2669.78L941.345 2670.78C967.53 2670.88 989.495 2687.79 1007.07 2705.89L1007.79 2705.19ZM941.846 2670.3C941.927 2667.4 941.031 2664.81 939.188 2662.77L938.445 2663.44C940.102 2665.27 940.92 2667.61 940.847 2670.27L941.846 2670.3ZM939.151 2662.73L939.141 2662.72L938.472 2663.46L938.482 2663.47L939.151 2662.73ZM939.302 2663.03C936.994 2645.1 934.499 2626.68 930.122 2609.07L929.151 2609.31C933.512 2626.86 936.001 2645.22 938.311 2663.16L939.302 2663.03ZM929.73 2609.68C931.549 2609.34 933.386 2609.09 935.248 2608.8C937.1 2608.51 938.96 2608.17 940.774 2607.65L940.499 2606.69C938.746 2607.19 936.935 2607.52 935.093 2607.81C933.261 2608.1 931.382 2608.35 929.543 2608.7L929.73 2609.68ZM940.432 2607.63C947.956 2611.01 955.257 2604.18 953.553 2596.55L952.578 2596.77C954.124 2603.69 947.523 2609.72 940.841 2606.72L940.432 2607.63ZM953.559 2596.58C941.532 2520.07 941.382 2442.16 948.465 2365.15L947.47 2365.06C940.381 2442.12 940.529 2520.13 952.572 2596.74L953.559 2596.58ZM948.465 2365.15C959.372 2246.68 986.397 2131.35 1016.15 2016.49C1045.9 1901.65 1078.38 1787.27 1100.17 1670.77L1099.19 1670.58C1077.4 1787.04 1044.94 1901.37 1015.18 2016.24C985.427 2131.11 958.385 2246.51 947.47 2365.06L948.465 2365.15ZM1099.51 1671.14C1114.06 1676.34 1126.36 1675.84 1136.8 1671.46C1147.23 1667.08 1155.74 1658.85 1162.74 1648.67C1176.73 1628.31 1184.81 1600.02 1190.19 1578.61L1189.22 1578.37C1183.84 1599.79 1175.8 1627.91 1161.91 1648.1C1154.98 1658.19 1146.61 1666.26 1136.42 1670.54C1126.24 1674.81 1114.19 1675.33 1099.84 1670.2L1099.51 1671.14ZM1190.2 1578.59C1192.78 1565.6 1196.89 1550.97 1198.47 1536.6C1200.06 1522.21 1199.12 1507.95 1191.56 1495.61L1190.71 1496.13C1198.1 1508.2 1199.05 1522.2 1197.48 1536.5C1195.9 1550.81 1191.82 1565.29 1189.22 1578.39L1190.2 1578.59ZM1190.95 1496.34C1193.77 1497.46 1196.34 1497.62 1198.66 1496.87C1200.97 1496.13 1202.98 1494.5 1204.7 1492.17C1208.15 1487.51 1210.57 1479.92 1212.2 1470.35C1215.46 1451.18 1215.58 1423.78 1214 1395.12C1212.42 1366.46 1209.12 1336.52 1205.54 1312.26C1203.75 1300.13 1201.89 1289.41 1200.13 1280.99C1198.38 1272.58 1196.72 1266.4 1195.33 1263.38L1194.42 1263.8C1195.76 1266.7 1197.4 1272.77 1199.16 1281.19C1200.91 1289.59 1202.77 1300.28 1204.55 1312.4C1208.13 1336.64 1211.42 1366.55 1213 1395.18C1214.59 1423.82 1214.46 1451.13 1211.21 1470.18C1209.59 1479.72 1207.2 1487.11 1203.9 1491.57C1202.26 1493.79 1200.41 1495.26 1198.35 1495.92C1196.3 1496.58 1193.97 1496.46 1191.32 1495.41L1190.95 1496.34Z" fill="black"/>
<path fill-rule="evenodd" clip-rule="evenodd" d="M939.529 304.003C937.376 285.088 940.162 245.552 940.349 243.15C941.529 227.965 934.414 168.002 920.964 173.527C898.402 155.666 868.351 151.722 840.251 149.838C781.884 145.924 719.791 154.909 674.721 194.189C652.432 214.588 630.733 244.257 632.477 275.149C612.226 304.431 583.677 344.598 608.909 378.831C617.485 389.768 631.117 393.841 641.891 402.124C663.563 419.604 677.159 444.69 699.037 462.066C756.997 514.149 855.414 525.029 912.36 465.789C956.395 422.885 949.275 358.699 941.529 304.003C936.322 267.23 943.729 340.904 939.529 304.003Z" fill="white"/>
<path fill-rule="evenodd" clip-rule="evenodd" d="M762.28 69.6251C777.89 66.4751 793.919 64.5151 809.86 65.1051L811.089 65.1528C823.083 65.6322 838.273 66.6926 848.736 73.6671C849.338 73.0631 850.306 72.7531 851.184 73.1721C863.618 79.1071 877.294 83.3981 890.386 87.6621C903.418 91.9051 916.938 94.7061 930.597 95.8351C935.736 96.2601 940.134 101.809 936.88 106.786C936.106 107.972 935.352 109.17 934.601 110.371C935.857 110.24 937.113 110.105 938.369 109.978C942.502 109.562 946.631 113.973 946.386 117.997C946.233 120.528 945.96 123.029 945.556 125.5C947.13 125.467 948.695 125.703 950.207 126.342C957.863 129.575 957.33 138.694 956.757 145.632C955.963 155.26 952.362 165.458 945.676 172.664C950.668 177.849 954.202 184.041 956.31 191.395C957.839 196.765 958.69 202.485 958.27 208.075L958.136 209.749C957.617 215.815 956.584 222.531 952.22 226.895C949.98 229.145 947.22 229.965 944.589 229.705C946.18 243.685 947.2 257.745 948.16 271.755L948.61 278.451C950.752 310.831 952.361 343.422 951.94 375.855C951.549 406.165 945.56 435.585 926.97 460.195C910.039 482.605 885.73 499.125 858.23 505.405C843.41 508.795 828.28 509.035 813.28 506.875C806.009 505.825 798.69 504.215 791.789 501.675C784.15 498.855 778.66 494.705 773.52 488.485C771.089 485.535 772.259 479.255 777.1 479.845C784.421 480.733 791.105 481.803 798.124 483.968L799.129 484.285C806.12 486.525 813.36 488.195 820.669 488.905C835.64 490.355 850.839 488.895 865.18 484.355C888.53 476.955 908.64 460.465 921.53 439.745C936.83 415.185 938.56 387.305 938.339 359.065C938.102 328.077 937.094 297.07 935.449 266.114L935.169 260.955C934.299 245.025 933.459 229.085 932.72 213.145C932.49 208.145 932.14 203.105 931.509 198.115C925.74 194.735 920.57 190.075 917.2 184.325C910.43 187.125 903.31 189.145 896.759 190.755C881.585 194.487 865.831 195.393 850.386 193.056C846.22 194.777 841.971 196.29 837.657 197.592C836.491 198.109 835.325 198.617 834.16 199.115C823.759 203.565 813.209 207.335 802.23 210.095L799.533 210.768C793.755 212.192 787.479 213.595 781.33 214.035C780.32 214.425 779.23 214.755 778.039 215.045C772.44 216.405 766.629 216.835 760.89 216.355C755.299 215.885 751.259 210.235 754.339 204.945C756.589 201.085 758.86 197.235 761.15 193.395C753.18 196.715 744.95 199.475 736.65 201.815C728.27 204.175 719.77 206.165 711.259 207.995C706.709 208.965 702.14 209.825 697.6 210.795C694.35 211.485 689.36 211.845 686.709 213.985C683.78 216.335 682.95 221.815 681.839 225.195C680.379 229.585 679.009 233.995 677.759 238.455C675.27 247.355 673.23 256.385 671.65 265.505C670.07 274.635 669.009 283.855 668.419 293.105C667.83 302.345 668.089 311.645 667.14 320.845C666.629 325.725 661.39 328.235 657.52 324.825C657.066 324.425 656.608 324.021 656.155 323.612L655.48 322.995C652.169 319.995 648.959 316.815 646.31 313.235C645.83 312.575 645.37 311.885 644.94 311.185C644.87 311.185 644.81 311.165 644.74 311.115L644.005 310.562C635.918 304.543 622.406 296.694 614.52 306.695C612.007 309.881 610.72 313.938 609.653 317.851L607.779 324.856C606.567 329.428 605.426 334.026 604.759 338.705C603.249 349.185 604.009 361.265 611.22 369.665C614.1 373.025 618.07 375.425 622.499 376.055C624.97 376.395 627.41 375.975 629.86 375.665C632.35 375.355 634.749 375.855 637.24 375.615C641.2 375.225 642.93 379.965 641.45 382.945C640.65 384.545 639.709 385.925 638.64 387.095C639.499 387.835 640.32 388.635 641.11 389.475C643.45 390.225 645.549 391.835 647.12 393.965C648.39 395.685 649.049 397.555 649.16 399.525C649.299 400.015 649.419 400.515 649.53 401.025L651.675 404.507C652.147 405.271 652.617 406.025 653.089 406.765C658.549 415.365 664.61 422.645 672.14 429.505C679.39 436.105 687.259 442.015 694.07 449.095L694.872 449.936C701.222 456.627 707.915 464.726 705.43 474.455C704.79 476.955 701.299 478.755 699.02 477.065C691.69 471.625 687.999 463.005 681.78 456.405C675.379 449.605 668.289 443.495 661.87 436.715C655.799 430.315 651.009 423.065 647.4 415.085C645.959 416.675 643.86 417.805 640.95 418.245C635.95 418.995 631.289 416.065 629.11 411.735C627.709 412.355 626.28 412.915 624.839 413.355C617.259 415.675 612.49 407.245 615.35 401.015C616.879 397.675 618.789 394.775 621.16 392.335C613.749 391.315 606.209 387.485 601.339 382.705C589.12 370.695 587.44 352.645 590.19 336.595C591.65 328.085 594.169 319.475 597.44 311.485C598.009 310.095 598.62 308.695 599.289 307.315C598.919 307.305 598.539 307.145 598.299 306.835C596.089 303.815 593.4 301.345 591.759 297.965C590.249 294.865 588.57 291.725 587.379 288.495C584.93 281.885 583.73 274.425 582.93 267.435C581.28 253.125 581.919 238.905 584.11 224.685C587.839 200.465 596.847 177.287 610.118 156.949C609.395 156.569 608.703 156.111 608.058 155.569L607.739 155.291L607.221 154.823C603.434 151.396 603.761 144.973 607.221 141.502L608.314 140.407C609.698 139.032 610.891 137.943 613.126 136.446C613.456 136.225 613.793 136.017 614.134 135.823C612.964 133.661 612.558 131.133 613.373 128.344C616.213 118.628 630.193 118.972 639.054 123.209C648.857 114.46 659.727 106.865 671.509 100.715C699.57 86.0751 731.299 75.8651 762.28 69.6251ZM617.23 325.525C622.47 323.815 629.43 327.405 634.14 329.565C640.11 332.305 645.19 336.355 650.11 340.635C652.56 342.775 652.999 346.275 652.39 349.265C652.329 349.565 652.27 349.875 652.199 350.185C651.549 353.375 647.989 355.885 644.839 355.795C638.249 355.615 635.11 349.925 631.379 345.105C630.94 345.885 630.39 346.605 629.709 347.145L629.249 347.505C627.701 348.684 625.995 349.626 623.949 349.535C622.499 349.465 621.11 349.095 619.829 348.425C616.629 346.735 615.22 342.595 616.089 339.225C616.629 337.105 617.869 335.445 619.489 334.295L618.885 333.882C617.593 332.983 616.415 332.035 615.497 330.636L615.289 330.305H615.369C614.369 328.585 615.02 326.245 617.23 325.525Z" fill="black"/>
<path fill-rule="evenodd" clip-rule="evenodd" d="M946.311 337.458C934.17 350.003 913.902 353.603 897.749 346.875C856.273 329.546 876.574 275.496 908.561 260.981C912.557 259.985 917.894 257.622 922.761 257.086C923.201 256.87 924.159 257.495 925.32 256.904C960.591 260.842 968.623 315.594 946.311 337.458M812.533 340.669C798.916 358.73 773.6 364.302 752.916 355.906C712.054 339.814 726.547 291.885 754.504 273.095C813.561 250.904 837.948 307.368 812.533 340.669M723.953 300.651C723.915 300.633 723.877 300.624 723.838 300.606C724.054 300.511 724.27 300.416 724.485 300.319C724.415 300.502 724.339 300.683 724.271 300.866C724.165 300.793 724.072 300.708 723.953 300.651M974.423 281.128C971.089 281.135 966.273 281.683 963.513 283.996C956.707 261.043 931.585 239.8 909.737 255.29C892.532 260.823 879.765 273.094 872.509 289.408C859.426 281.626 838.854 284.949 827.509 295.24C820.079 270.689 801.793 262.092 780.028 260.823C756.272 256.932 732.594 280.003 725.206 298.511C719.063 297.812 709.884 295.857 704.105 299.648C666.598 289.812 601.023 284.389 593.398 289.854C587.964 291.939 584.982 304.765 592.572 305.457C599.186 304.518 591.8 296.059 598.467 295.136C633.99 292.934 668.475 300.088 703.622 303.09C706.76 307.311 716.899 308.723 722.308 307.027C713.789 338.423 732.179 359.783 759.734 366.181C802.401 375.982 839.522 337.814 828.365 298.114C841.29 291.684 856.157 291.96 870.237 295.347C846.709 381.937 986.166 378.052 964.385 286.963C978.88 294.173 982.028 282.583 974.423 281.128" fill="black"/>
<path fill-rule="evenodd" clip-rule="evenodd" d="M825.587 430.927C818.864 428.184 812.866 423.61 808.481 417.766C806.957 415.735 806.561 413.59 806.881 411.628C807.241 409.421 808.546 407.422 810.326 406.081C812.112 404.735 814.345 404.072 816.504 404.41C818.381 404.704 820.248 405.731 821.727 407.862L822.035 408.288C824.642 411.815 828.04 414.709 831.91 416.574C835.641 418.372 839.814 419.211 844.132 418.723C852.356 417.794 858.024 413.346 864.049 407.307C864.796 406.544 865.543 405.758 866.294 404.959C866.768 404.234 867.426 403.769 868.157 403.524C868.968 403.253 869.886 403.269 870.726 403.562C871.537 403.845 872.262 404.381 872.748 405.095C873.209 405.773 873.471 406.61 873.386 407.574C872.835 413.833 869.562 419.419 864.914 423.805C859.752 428.677 852.909 432.047 846.466 433.229C839.368 434.531 832.136 433.598 825.587 430.927V430.927ZM849.814 334.367C857.366 338.957 868.872 349.66 860.748 361.04C851.186 371.073 837.419 359.569 830.634 354.366C824.343 350.334 817.275 360.704 823.112 365.413C872.136 401.708 892.031 335.567 853.634 328.97C849.406 328.243 847.836 332.947 849.814 334.367ZM761.963 292.146C762.798 281.79 778.57 279.438 780.139 289.686C781.544 298.866 779.89 307.299 775.755 315.564C771.804 323.46 761.874 319.777 761.123 312.587C760.116 302.949 761.444 298.589 761.963 292.146ZM882.027 287.561C884.226 284.681 887.401 282.715 891.205 283.826C903.09 287.299 899.587 304.172 895.413 312.385C893.145 316.845 885.814 317.976 882.501 314.049C877.101 307.645 874.515 294.856 881.38 288.548C881.566 288.222 881.773 287.893 882.027 287.561ZM775.588 246.83L777.465 246.502C783.273 245.497 790.494 244.532 794.603 249.201C796.782 251.677 797.532 256.279 794.603 258.649C789.451 262.819 783.755 261.203 777.581 261.556C772.493 261.848 767.603 262.69 762.702 264.091C751.95 267.164 743.189 272.774 734.006 278.934C732.801 279.742 731.571 278.201 732.146 277.074C737.447 266.691 747.72 258.162 758.01 252.963C763.502 250.188 769.512 247.886 775.588 246.83ZM871.193 242.179L872.63 242.473C888.267 245.742 908.583 252.271 915.988 267.631C916.271 269.803 915.972 270.268 915.73 270.572L915.649 270.673C915.45 270.933 915.29 271.291 914.349 271.587C914.088 271.525 913.824 271.459 913.557 271.389C910.163 270.499 907.477 269.274 904.877 268.002L902.058 266.613C898.788 265.01 895.488 263.465 891.992 262.324C884.53 259.89 876.854 258.175 869.06 257.26C867.37 257.061 865.744 256.491 864.46 255.514C863.242 254.587 862.311 253.302 861.887 251.595C861.337 249.386 861.495 247.714 862.681 245.721C863.572 244.224 864.847 243.187 866.311 242.591C867.804 241.984 869.504 241.841 871.193 242.179Z" fill="black"/>
</svg>
