<svg width="818" height="1230" viewBox="0 0 818 1230" fill="none" xmlns="http://www.w3.org/2000/svg">
<path fill-rule="evenodd" clip-rule="evenodd" d="M117.916 1218.75C151.284 1218.85 183.706 1219.99 217.168 1220.11C353.187 1220.56 490.457 1219.9 626.97 1214.39C665.553 1212.83 675.185 1212.86 713.602 1210.45C736.285 1210.37 804.42 1208.49 801.009 1177.59C799.503 1120.05 785.256 1062.75 780.769 1005.37C772.157 897.484 764.823 786.228 721.578 685.325C711.568 661.227 690.07 645.469 668.789 631.299C647.447 616.012 642.21 599.04 622.513 581.771C618.348 578.119 594.697 576.633 581.972 567.37C563.45 553.889 554.265 531.817 547.354 528.06C542.269 525.296 542.362 506.222 532.171 499.471C518.494 490.412 474.911 483.676 459.055 482.416C443.836 481.207 417.365 483.747 403.086 489.32C379.274 498.613 369.776 516.341 359.289 539.18C220.742 581.999 94.1074 654.508 54.7794 800.761C20.8644 923.424 19.6214 1054.93 32.7234 1180.73C35.3444 1189.93 33.5074 1204.35 41.4574 1210.45C13.8294 1212.03 114.168 1217.73 117.916 1218.75Z" fill="white"/>
<path fill-rule="evenodd" clip-rule="evenodd" d="M748.08 1097.63C745.458 1096.32 742.725 1094.82 739.731 1094.72C734.589 1094.54 734.582 1086.54 739.731 1086.72C744.222 1086.88 748.166 1088.75 752.118 1090.72C756.729 1093.02 752.673 1099.92 748.08 1097.63M739.731 872.449C743.24 872.452 746.777 872.895 749.472 875.349C751.074 876.809 750.947 879.53 749.472 881.006C747.893 882.583 745.411 882.46 743.814 881.006C744.335 881.479 743.819 881.01 743.63 880.905C743.585 880.881 743.56 880.864 743.548 880.853C743.508 880.843 743.468 880.835 743.403 880.818C742.985 880.713 742.572 880.61 742.149 880.534C742.142 880.554 741.256 880.475 741.048 880.467C740.608 880.451 740.17 880.449 739.731 880.449C737.561 880.448 735.731 878.62 735.731 876.449C735.731 874.289 737.569 872.448 739.731 872.449M702.116 962.185C700.97 967.21 693.259 965.07 694.402 960.058C696.064 952.771 695.761 945.305 694.402 937.992C693.466 932.952 701.177 930.811 702.116 935.866C703.746 944.638 704.111 953.441 702.116 962.185M692.012 674.675C686.054 673.26 680.161 673.092 674.067 673.09C668.911 673.088 668.919 665.088 674.067 665.09C680.864 665.092 687.499 665.384 694.139 666.961C699.153 668.152 697.017 675.863 692.012 674.675M672.048 869.535C668.593 867.807 665.136 866.079 661.681 864.351C657.069 862.046 661.126 855.148 665.718 857.443L676.086 862.628C680.696 864.933 676.64 871.831 672.048 869.535M670.609 1027.08C666.226 1033.39 660.063 1037.32 652.667 1039.28C647.677 1040.6 645.567 1032.89 650.54 1031.57C655.829 1030.17 660.528 1027.61 663.701 1023.04C666.618 1018.83 673.55 1022.84 670.609 1027.08M642.966 745.412C641.78 743.196 639.995 742.26 637.779 742.21C632.631 742.092 632.63 734.092 637.779 734.21C642.829 734.324 647.46 736.86 649.873 741.375C652.302 745.918 645.393 749.955 642.966 745.412M592.224 799.79C590.79 801.352 588.009 801.313 586.567 799.79C585.684 798.858 584.942 797.817 584.358 796.676C584.136 796.243 583.927 795.802 583.683 795.381C583.574 795.194 583.453 795.008 583.329 794.828C583.287 794.791 583.2 794.701 583.11 794.606C581.573 792.981 581.612 790.582 583.11 788.949C584.545 787.387 587.326 787.426 588.768 788.949C589.65 789.881 590.393 790.922 590.976 792.063C591.198 792.496 591.407 792.937 591.652 793.359C591.761 793.546 591.882 793.731 592.006 793.911C592.048 793.948 592.134 794.038 592.224 794.133C593.762 795.758 593.723 798.157 592.224 799.79M587.958 917.919C582.748 920.303 577.034 920.303 571.824 917.919C569.851 917.016 569.383 914.167 570.39 912.446C571.556 910.452 573.899 910.113 575.862 911.011C578.225 912.092 581.561 912.091 583.921 911.011C585.893 910.109 588.213 910.429 589.393 912.446C590.406 914.178 589.923 917.02 587.958 917.919M573.747 1001.53C572.852 1003.65 570.919 1004.78 568.659 1004.86C566.42 1004.95 564.753 1002.96 564.659 1000.86C564.599 999.509 565.332 998.35 566.385 997.632C566.386 997.558 566.388 997.484 566.388 997.409C566.389 995.167 568.22 993.506 570.388 993.409C572.547 993.312 574.389 995.317 574.388 997.409C574.387 998.821 574.3 1000.22 573.747 1001.53M553.107 1134.46C546.723 1134.57 540.485 1136.09 534.1 1136.19C528.941 1136.28 528.957 1128.28 534.1 1128.19C540.484 1128.09 546.722 1126.57 553.107 1126.46C558.266 1126.38 558.25 1134.38 553.107 1134.46M526.559 621.806C522.822 625.366 518.206 627.12 513.654 629.344C509.042 631.597 504.991 624.696 509.616 622.436C513.472 620.552 517.741 619.16 520.903 616.15C524.633 612.597 530.296 618.248 526.559 621.806M516.528 714.016C513.906 712.707 511.173 711.21 508.18 711.106C503.037 710.926 503.03 702.926 508.18 703.106C512.67 703.262 516.614 705.135 520.566 707.108C525.179 709.41 521.122 716.308 516.528 714.016M468.437 1084.1C467.253 1081.88 465.468 1080.95 463.252 1080.9C458.103 1080.78 458.101 1072.78 463.252 1072.9C468.302 1073.01 472.933 1075.55 475.346 1080.06C477.774 1084.61 470.866 1088.64 468.437 1084.1M451.783 910.381C450.191 908.92 450.302 906.206 451.783 904.725C453.511 902.997 455.239 901.269 456.968 899.541C458.548 897.96 461.027 898.075 462.624 899.541C464.216 901.002 464.105 903.716 462.624 905.198C460.895 906.926 459.168 908.653 457.44 910.381C455.858 911.963 453.38 911.847 451.783 910.381M432.147 1181.12C426.376 1180.99 420.966 1179.33 415.532 1177.52C410.663 1175.9 412.763 1168.18 417.659 1169.81C422.382 1171.38 427.126 1173 432.147 1173.12C437.296 1173.24 437.298 1181.24 432.147 1181.12M406.227 1010.05C401.013 1009.9 396.688 1007.25 393.031 1003.69C389.332 1000.1 394.995 994.445 398.688 998.037C400.781 1000.07 403.196 1001.96 406.227 1002.05C411.374 1002.19 411.378 1010.19 406.227 1010.05M422.323 790.049C422.386 792.179 423.286 794.461 424.608 795.861C428.143 799.605 422.493 805.269 418.951 801.518C416.029 798.424 414.446 794.283 414.323 790.049C414.175 784.891 422.176 784.913 422.323 790.049M361.302 615.813C359.628 612.535 357.434 608.691 354.097 606.88C349.565 604.421 353.608 597.516 358.135 599.972C362.671 602.434 365.917 607.286 368.21 611.775C370.55 616.356 363.644 620.399 361.302 615.813M350.932 699.01C349.076 698.957 347.234 698.639 345.444 698.154C344.679 697.946 343.923 697.707 343.157 697.499C342.829 697.41 341.436 697.236 342.292 697.282C340.126 697.166 338.292 695.544 338.292 693.282C338.292 691.203 340.132 689.166 342.292 689.282C345.261 689.441 347.961 690.926 350.932 691.01C356.077 691.155 356.081 699.155 350.932 699.01M325.012 826.881H316.372C311.216 826.881 311.225 818.881 316.372 818.881H325.012C330.168 818.881 330.159 826.881 325.012 826.881M314.934 1180.57C312.314 1181.88 309.226 1183.13 307.104 1185.13C303.362 1188.67 297.698 1183.02 301.447 1179.48C304.15 1176.92 307.606 1175.31 310.897 1173.67C312.836 1172.7 315.22 1173.13 316.37 1175.1C317.409 1176.88 316.866 1179.61 314.934 1180.57M295.629 1079.49C295.294 1079.4 294.94 1079.34 294.601 1079.29C293.241 1079.11 291.818 1079.17 290.452 1079.17C285.296 1079.17 285.304 1071.17 290.452 1071.17C294.509 1071.17 298.731 1071.23 301.921 1074.07C303.54 1075.51 303.383 1078.26 301.921 1079.72C300.331 1081.31 297.876 1081.16 296.264 1079.72C296.434 1079.88 295.851 1079.56 295.629 1079.49M290.454 943.55C291.616 941.154 291.634 939.592 291.636 936.929C291.64 931.773 299.64 931.781 299.636 936.929C299.634 940.795 299.059 944.087 297.362 947.588C296.415 949.54 293.643 950.049 291.89 949.023C289.924 947.874 289.513 945.493 290.454 943.55M267.323 755.891C262.683 757.469 258.541 759.703 254.455 762.4C250.142 765.246 246.139 758.315 250.417 755.492C255.08 752.415 259.903 749.977 265.196 748.176C270.09 746.512 272.171 754.242 267.323 755.891M240.34 621.25C236.893 621.346 233.335 622.668 230.263 624.16C225.646 626.402 221.595 619.501 226.226 617.252C230.614 615.12 235.415 613.388 240.34 613.25C245.499 613.105 245.477 621.106 240.34 621.25M228.244 980.673C226.888 980.734 225.729 980.001 225.011 978.947C224.936 978.947 224.862 978.945 224.788 978.945C222.546 978.944 220.886 977.113 220.788 974.945C220.691 972.786 222.696 970.944 224.788 970.945C226.2 970.946 227.601 971.032 228.913 971.586C231.032 972.48 232.158 974.413 232.244 976.673C232.329 978.913 230.343 980.579 228.244 980.673M208.571 704.051C203.658 705.656 201.572 697.929 206.444 696.337C212.163 694.468 218.007 693.021 223.725 691.152C228.638 689.547 230.724 697.275 225.851 698.867C220.134 700.735 214.289 702.182 208.571 704.051M190.63 855.049C189.106 859.959 181.387 857.851 182.915 852.922C184.391 848.164 184.497 843.376 184.5 838.433C184.503 833.277 192.503 833.286 192.5 838.433C192.497 844.059 192.308 849.634 190.63 855.049M137.143 1035.9C136.852 1037.9 135.272 1039.33 133.204 1039.42C131.099 1039.52 129.128 1037.52 129.204 1035.42C129.351 1031.4 132.634 1028.12 136.66 1027.97C138.9 1027.89 140.566 1029.87 140.66 1031.97C140.752 1034.01 139.046 1035.61 137.143 1035.9M110.075 806.003C105.848 807.414 101.331 808.757 98.0168 811.886C94.2718 815.42 88.6078 809.771 92.3598 806.229C96.7298 802.104 102.351 800.157 107.949 798.288C112.851 796.652 114.934 804.381 110.075 806.003M91.7299 961.412C90.5679 963.398 88.2149 963.757 86.2579 962.847C83.6339 961.627 80.7369 961.668 77.9079 961.665C72.7529 961.661 72.7609 953.661 77.9079 953.665C82.2719 953.669 86.2979 954.08 90.2959 955.939C92.2629 956.855 92.7419 959.682 91.7299 961.412M81.3639 1150.02C79.1239 1150.1 77.4579 1148.12 77.3639 1146.02C77.2719 1143.97 78.9769 1142.38 80.8819 1142.08C81.1719 1140.09 82.7529 1138.65 84.8199 1138.56C86.9259 1138.47 88.8968 1140.47 88.8198 1142.56C88.6728 1146.59 85.3918 1149.87 81.3639 1150.02M810.19 1180.26C808.831 1175.37 805.721 1171.42 803.371 1167.02C802.583 1165.54 802.309 1164.62 801.882 1163.53C801.302 1164.69 800.176 1165.57 798.483 1165.57C795.235 1165.57 791.436 1165.36 788.405 1166.75C786.434 1167.65 784.112 1167.33 782.933 1165.32C781.92 1163.58 782.404 1160.74 784.368 1159.84C788.835 1157.8 793.637 1157.57 798.483 1157.57C799.68 1157.57 800.586 1158.01 801.226 1158.67C803.078 1133.31 803.032 1107.93 801.28 1082.55C799.411 1055.43 795.11 1028.85 790.61 1002.08C788.431 989.105 785.601 975.995 786.151 962.775C786.701 949.645 792.331 937.405 788.341 924.235C786.741 918.955 784.001 914.115 782.221 908.895C780.311 903.275 780.481 897.725 781.351 891.905C783.141 880.055 786.11 868.345 781.36 856.775C779.261 851.645 775.86 847.065 774.221 841.765C772.181 835.175 772.461 827.885 772.121 821.055C771.431 807.275 771.251 793.405 770.11 779.655C769.601 773.495 768.491 767.655 765.961 762.005C763.53 756.565 759.921 751.615 758.311 745.845C756.711 740.165 756.571 734.175 755.711 728.365C754.811 722.225 753.401 716.175 751.501 710.275C744.161 687.435 730.711 666.915 714.821 649.125C697.931 630.215 677.741 615.975 656.311 602.705C645.042 595.727 633.774 588.749 622.513 581.771C622.273 583.08 621.438 584.283 619.835 584.819C615.606 586.231 611.091 587.573 607.776 590.702C604.032 594.236 598.367 588.587 602.119 585.046C606.033 581.35 610.952 579.405 615.958 577.696C610.827 574.462 605.641 571.113 599.851 569.245C594.78 567.605 587.301 569.035 583.19 565.315C579.961 562.385 578.94 556.955 577.701 552.975C576.151 548.035 574.811 542.825 572.841 538.025C571.501 534.745 569.551 531.595 567.091 529.055C566.011 524.895 564.03 521.095 560.53 518.785C551.371 512.725 540.121 518.745 536.091 527.385C532.761 527.375 529.251 528.105 526.011 528.305C519.351 528.725 512.681 528.915 506.011 528.895C492.961 528.855 479.901 528.005 466.961 526.275C443.821 523.175 421.371 516.925 398.621 512.055C398.491 511.755 398.341 511.455 398.161 511.155C393.261 502.935 381.051 504.325 373.36 507.435C370.061 508.765 366.701 510.445 364.811 513.565C362.811 514.915 361.081 516.555 359.931 518.285C357.551 521.855 355.711 529.055 350.881 529.655C347.701 530.045 344.471 529.435 341.241 529.895C337.201 530.455 333.581 531.875 329.851 533.495C301.451 545.825 272.091 559.535 241.27 564.315C234.041 565.435 226.681 566.595 220.401 570.645C215.301 573.935 211.36 578.455 207.151 582.745C203.051 586.925 199.671 588.775 193.821 589.525C186.721 590.435 180.571 592.395 175.381 597.555C171.071 601.845 168.261 607.325 164.881 612.305C161.44 617.385 156.391 620.245 151.151 623.195C138.761 630.175 127.221 638.605 117.171 648.715C96.0009 670.035 83.1808 697.435 70.2608 724.135C56.2908 753.015 43.2308 782.245 34.1708 813.085C25.2908 843.365 20.0108 874.515 17.5708 905.955C15.0008 938.945 14.6408 972.065 12.5008 1005.07C11.4308 1021.56 10.6208 1038.07 9.80085 1054.57C9.00085 1070.87 7.83085 1087.2 8.01985 1103.52C8.38085 1135.07 14.6898 1166.72 25.7208 1196.26C28.4708 1203.61 31.5198 1210.86 34.7698 1218C37.6208 1224.27 47.3708 1223.57 50.4308 1218C51.1308 1216.72 51.6809 1215.4 52.1409 1214.06C60.1409 1214.13 68.2209 1213.51 76.1709 1214.25C90.2109 1215.56 104.28 1216.29 118.36 1217.16C146.221 1218.89 174.131 1220.04 202.001 1221.63C204.705 1221.79 207.409 1221.94 210.112 1222.1C190.251 1160.63 192.827 1094.17 189.684 1030.24C189.431 1025.09 197.433 1025.12 197.684 1030.24C200.84 1094.45 198.153 1161.08 218.716 1222.65C226.694 1223.19 234.661 1223.85 242.601 1224.81C249.02 1225.58 255.471 1226.49 261.951 1226.17C269.301 1225.82 276.481 1224.14 283.651 1222.68C296.681 1220.03 309.231 1221.23 322.311 1222.86C336.301 1224.61 350.341 1225.58 364.421 1226.19C420.801 1228.66 477.561 1230.91 533.921 1227.14C547.561 1226.23 561.171 1224.95 574.721 1223.21C588.681 1221.42 602.491 1218.41 616.44 1216.7C630.19 1215.02 642.831 1219.63 656.421 1220.48C670.28 1221.35 684.511 1218.46 698.241 1216.8C702.72 1216.26 707.204 1215.73 711.689 1215.21C705.915 1175.63 702.632 1135.76 699.443 1095.9C699.032 1090.76 707.035 1090.81 707.443 1095.9C710.606 1135.45 713.816 1175.03 719.581 1214.29C743.356 1211.52 767.154 1208.72 790.681 1204.41C797.381 1203.19 804.041 1201.2 808.051 1195.22C811.02 1190.79 811.621 1185.36 810.19 1180.26" fill="black"/>
<path fill-rule="evenodd" clip-rule="evenodd" d="M628.529 304.003C626.376 285.088 629.162 245.552 629.349 243.15C630.529 227.965 623.414 168.002 609.964 173.527C587.402 155.666 557.351 151.722 529.251 149.838C470.884 145.924 408.791 154.909 363.721 194.189C341.432 214.588 319.733 244.257 321.477 275.149C301.226 304.431 272.677 344.598 297.909 378.831C306.485 389.768 320.117 393.841 330.891 402.124C352.563 419.604 366.159 444.69 388.036 462.066C445.997 514.149 544.414 525.029 601.36 465.789C645.395 422.885 638.275 358.699 630.529 304.003C625.322 267.23 632.729 340.904 628.529 304.003Z" fill="white"/>
<path fill-rule="evenodd" clip-rule="evenodd" d="M451.28 69.6251C466.89 66.4751 482.919 64.5151 498.86 65.1051L500.089 65.1528C512.083 65.6322 527.273 66.6926 537.736 73.6671C538.338 73.0631 539.306 72.7531 540.184 73.1721C552.618 79.1071 566.294 83.3981 579.386 87.6621C592.418 91.9051 605.938 94.7061 619.597 95.8351C624.736 96.2601 629.134 101.809 625.88 106.786C625.106 107.972 624.352 109.17 623.601 110.371C624.857 110.24 626.113 110.105 627.369 109.978C631.502 109.562 635.631 113.973 635.386 117.997C635.233 120.528 634.96 123.029 634.556 125.5C636.13 125.467 637.695 125.703 639.207 126.342C646.863 129.575 646.33 138.694 645.757 145.632C644.963 155.26 641.362 165.458 634.676 172.664C639.668 177.849 643.202 184.041 645.31 191.395C646.839 196.765 647.69 202.485 647.27 208.075L647.136 209.749C646.617 215.815 645.584 222.531 641.22 226.895C638.98 229.145 636.22 229.965 633.589 229.705C635.18 243.685 636.2 257.745 637.16 271.755L637.61 278.451C639.752 310.831 641.361 343.422 640.94 375.855C640.549 406.165 634.56 435.585 615.97 460.195C599.039 482.605 574.73 499.125 547.23 505.405C532.41 508.795 517.28 509.035 502.28 506.875C495.009 505.825 487.69 504.215 480.789 501.675C473.15 498.855 467.66 494.705 462.52 488.485C460.089 485.535 461.259 479.255 466.1 479.845C473.421 480.733 480.105 481.803 487.124 483.968L488.129 484.285C495.12 486.525 502.36 488.195 509.669 488.905C524.64 490.355 539.839 488.895 554.18 484.355C577.53 476.955 597.64 460.465 610.53 439.745C625.83 415.185 627.56 387.305 627.339 359.065C627.102 328.077 626.094 297.07 624.449 266.114L624.169 260.955C623.299 245.025 622.459 229.085 621.72 213.145C621.49 208.145 621.14 203.105 620.509 198.115C614.74 194.735 609.57 190.075 606.2 184.325C599.43 187.125 592.31 189.145 585.759 190.755C570.585 194.487 554.831 195.393 539.386 193.056C535.22 194.777 530.971 196.29 526.657 197.592C525.491 198.109 524.325 198.617 523.16 199.115C512.759 203.565 502.209 207.335 491.23 210.095L488.533 210.768C482.755 212.192 476.479 213.595 470.33 214.035C469.32 214.425 468.23 214.755 467.039 215.045C461.44 216.405 455.629 216.835 449.89 216.355C444.299 215.885 440.259 210.235 443.339 204.945C445.589 201.085 447.86 197.235 450.15 193.395C442.18 196.715 433.95 199.475 425.65 201.815C417.27 204.175 408.77 206.165 400.259 207.995C395.709 208.965 391.14 209.825 386.6 210.795C383.35 211.485 378.36 211.845 375.709 213.985C372.78 216.335 371.95 221.815 370.839 225.195C369.379 229.585 368.009 233.995 366.759 238.455C364.27 247.355 362.23 256.385 360.65 265.505C359.07 274.635 358.009 283.855 357.419 293.105C356.83 302.345 357.089 311.645 356.14 320.845C355.629 325.725 350.39 328.235 346.52 324.825C346.066 324.425 345.608 324.021 345.155 323.612L344.48 322.995C341.169 319.995 337.959 316.815 335.31 313.235C334.83 312.575 334.37 311.885 333.94 311.185C333.87 311.185 333.81 311.165 333.74 311.115L333.005 310.562C324.918 304.543 311.406 296.694 303.52 306.695C301.007 309.881 299.72 313.938 298.653 317.851L296.779 324.856C295.567 329.428 294.426 334.026 293.759 338.705C292.249 349.185 293.009 361.265 300.22 369.665C303.1 373.025 307.07 375.425 311.499 376.055C313.97 376.395 316.41 375.975 318.86 375.665C321.35 375.355 323.749 375.855 326.24 375.615C330.2 375.225 331.93 379.965 330.45 382.945C329.65 384.545 328.709 385.925 327.64 387.095C328.499 387.835 329.32 388.635 330.11 389.475C332.45 390.225 334.549 391.835 336.12 393.965C337.39 395.685 338.049 397.555 338.16 399.525C338.299 400.015 338.419 400.515 338.53 401.025L340.675 404.507C341.147 405.271 341.617 406.025 342.089 406.765C347.549 415.365 353.61 422.645 361.14 429.505C368.39 436.105 376.259 442.015 383.07 449.095L383.872 449.936C390.222 456.627 396.915 464.726 394.43 474.455C393.79 476.955 390.299 478.755 388.02 477.065C380.69 471.625 376.999 463.005 370.78 456.405C364.379 449.605 357.289 443.495 350.87 436.715C344.799 430.315 340.009 423.065 336.4 415.085C334.959 416.675 332.86 417.805 329.95 418.245C324.95 418.995 320.289 416.065 318.11 411.735C316.709 412.355 315.28 412.915 313.839 413.355C306.259 415.675 301.49 407.245 304.35 401.015C305.879 397.675 307.789 394.775 310.16 392.335C302.749 391.315 295.209 387.485 290.339 382.705C278.12 370.695 276.44 352.645 279.19 336.595C280.65 328.085 283.169 319.475 286.44 311.485C287.009 310.095 287.62 308.695 288.289 307.315C287.919 307.305 287.539 307.145 287.299 306.835C285.089 303.815 282.4 301.345 280.759 297.965C279.249 294.865 277.57 291.725 276.379 288.495C273.93 281.885 272.73 274.425 271.93 267.435C270.28 253.125 270.919 238.905 273.11 224.685C276.839 200.465 285.847 177.287 299.118 156.949C298.395 156.569 297.703 156.111 297.058 155.569L296.739 155.291L296.221 154.823C292.434 151.396 292.761 144.973 296.221 141.502L297.314 140.407C298.697 139.032 299.891 137.943 302.126 136.446C302.456 136.225 302.793 136.017 303.134 135.823C301.964 133.661 301.558 131.133 302.373 128.344C305.213 118.628 319.193 118.972 328.054 123.209C337.857 114.46 348.727 106.865 360.509 100.715C388.57 86.0751 420.299 75.8651 451.28 69.6251ZM306.23 325.525C311.47 323.815 318.43 327.405 323.14 329.565C329.11 332.305 334.19 336.355 339.11 340.635C341.56 342.775 341.999 346.275 341.39 349.265C341.329 349.565 341.27 349.875 341.199 350.185C340.549 353.375 336.989 355.885 333.839 355.795C327.249 355.615 324.11 349.925 320.379 345.105C319.94 345.885 319.39 346.605 318.709 347.145L318.249 347.505C316.701 348.684 314.995 349.626 312.949 349.535C311.499 349.465 310.11 349.095 308.829 348.425C305.629 346.735 304.22 342.595 305.089 339.225C305.629 337.105 306.869 335.445 308.489 334.295L307.885 333.882C306.593 332.983 305.415 332.035 304.496 330.636L304.289 330.305H304.369C303.369 328.585 304.02 326.245 306.23 325.525Z" fill="black"/>
<path fill-rule="evenodd" clip-rule="evenodd" d="M527.587 434.927C520.864 432.184 514.866 427.61 510.481 421.766C508.957 419.735 508.561 417.59 508.881 415.628C509.241 413.421 510.546 411.422 512.326 410.081C514.112 408.735 516.345 408.072 518.504 408.41C520.381 408.704 522.248 409.731 523.727 411.862L524.035 412.288C526.642 415.815 530.04 418.709 533.91 420.574C537.641 422.372 541.814 423.211 546.132 422.723C554.356 421.794 560.024 417.346 566.049 411.307C566.796 410.544 567.543 409.758 568.294 408.959C568.768 408.234 569.426 407.769 570.157 407.524C570.968 407.253 571.886 407.269 572.726 407.562C573.537 407.845 574.262 408.381 574.747 409.095C575.209 409.773 575.471 410.61 575.386 411.574C574.835 417.833 571.562 423.419 566.914 427.805C561.752 432.677 554.909 436.047 548.466 437.229C541.368 438.531 534.136 437.598 527.587 434.927V434.927ZM551.814 338.367C559.366 342.957 570.872 353.66 562.748 365.04C553.186 375.073 539.418 363.569 532.634 358.366C526.343 354.334 519.275 364.704 525.112 369.413C574.136 405.708 594.031 339.567 555.634 332.97C551.406 332.243 549.836 336.947 551.814 338.367ZM463.963 296.146C464.798 285.79 480.57 283.438 482.139 293.686C483.544 302.866 481.89 311.299 477.755 319.564C473.804 327.46 463.874 323.777 463.123 316.587C462.116 306.949 463.444 302.589 463.963 296.146ZM584.027 291.561C586.226 288.681 589.401 286.715 593.205 287.826C605.09 291.299 601.587 308.172 597.413 316.385C595.145 320.845 587.814 321.976 584.501 318.049C579.101 311.645 576.515 298.856 583.38 292.548C583.566 292.222 583.773 291.893 584.027 291.561ZM477.588 250.83L479.465 250.502C485.273 249.497 492.494 248.532 496.603 253.201C498.782 255.677 499.532 260.279 496.603 262.649C491.451 266.819 485.755 265.203 479.581 265.556C474.493 265.848 469.603 266.69 464.702 268.091C453.95 271.164 445.189 276.774 436.006 282.934C434.801 283.742 433.571 282.201 434.146 281.074C439.447 270.691 449.72 262.162 460.01 256.963C465.502 254.188 471.512 251.886 477.588 250.83ZM573.193 246.179L574.63 246.473C590.267 249.742 610.583 256.271 617.988 271.631C618.271 273.803 617.972 274.268 617.73 274.572L617.649 274.673C617.45 274.933 617.29 275.291 616.349 275.587C616.087 275.525 615.824 275.459 615.557 275.389C612.163 274.499 609.477 273.274 606.877 272.002L604.058 270.613C600.788 269.01 597.488 267.465 593.992 266.324C586.53 263.89 578.854 262.175 571.06 261.26C569.37 261.061 567.744 260.491 566.46 259.514C565.242 258.587 564.311 257.302 563.887 255.595C563.337 253.386 563.495 251.714 564.68 249.721C565.572 248.224 566.847 247.187 568.311 246.591C569.804 245.984 571.503 245.841 573.193 246.179Z" fill="black"/>
<path fill-rule="evenodd" clip-rule="evenodd" d="M638.311 342.458C626.17 355.003 605.902 358.603 589.749 351.875C548.273 334.546 568.574 280.496 600.561 265.981C604.557 264.985 609.894 262.622 614.761 262.086C615.201 261.87 616.159 262.495 617.32 261.904C652.591 265.842 660.623 320.594 638.311 342.458M504.533 345.669C490.916 363.73 465.6 369.302 444.916 360.906C404.054 344.814 418.547 296.885 446.504 278.095C505.561 255.904 529.948 312.368 504.533 345.669M415.953 305.651C415.915 305.633 415.877 305.624 415.838 305.606C416.054 305.511 416.27 305.416 416.485 305.319C416.415 305.502 416.339 305.683 416.271 305.866C416.165 305.793 416.072 305.708 415.953 305.651M666.423 286.128C663.089 286.135 658.273 286.683 655.513 288.996C648.707 266.043 623.585 244.8 601.737 260.29C584.532 265.823 571.765 278.094 564.509 294.408C551.426 286.626 530.854 289.949 519.509 300.24C512.079 275.689 493.793 267.092 472.028 265.823C448.272 261.932 424.594 285.003 417.206 303.511C411.063 302.812 401.884 300.857 396.105 304.648C358.598 294.812 293.023 289.389 285.398 294.854C279.964 296.939 276.982 309.765 284.572 310.457C291.186 309.518 283.8 301.059 290.467 300.136C325.99 297.934 360.475 305.088 395.622 308.09C398.76 312.311 408.899 313.723 414.308 312.027C405.789 343.423 424.179 364.783 451.734 371.181C494.401 380.982 531.522 342.814 520.365 303.114C533.29 296.684 548.157 296.96 562.237 300.347C538.709 386.937 678.166 383.052 656.385 291.963C670.88 299.173 674.028 287.583 666.423 286.128" fill="black"/>
</svg>
