<svg width="818" height="1187" viewBox="0 0 818 1187" fill="none" xmlns="http://www.w3.org/2000/svg">
<path fill-rule="evenodd" clip-rule="evenodd" d="M764.147 845.463C764.147 837.371 752.947 823.008 752.928 815.679C762.344 813.996 770.216 801.239 768.13 793.25C764.455 790.441 754.822 784.911 750.838 782.329C726.565 783.065 735.79 749.296 733.043 732.131C730.277 715.337 728.223 697.777 724.175 680.888C716.985 667.374 713.611 652.224 706.739 638.778C703.67 634.322 698.71 630.237 697.225 625.06C682.191 608.64 661.495 598.798 644.463 584.891C651.073 582.775 650.632 573.86 650.205 568.135C651.743 560.666 650.1 551.298 643.288 547.09C640.986 539.59 630.924 536.972 625.04 541.75C621.175 524.427 606.054 513.917 590.214 507.489C590.228 507.438 590.241 507.388 590.256 507.337C574.281 500.997 555.133 497.836 539.194 501.4C547.608 407.652 475.805 404.21 439.364 412.089C420.725 416.118 392.758 428.664 386.404 446.105C382.817 455.952 372.524 487.708 371.059 497.836C343.232 481.957 310.972 461.019 286.836 492.987C282.003 498.558 276.655 502.696 269.423 504.61C246.843 510.469 216.873 510.665 204.039 533.683C196.368 547.943 203.267 557.339 201.206 571.604C99.5631 642.983 14.6221 905.936 33.6941 1028.27C38.2821 1072.05 60.6821 1149.54 115.971 1139.88C144.171 1170.72 617.495 1170.72 666.302 1139.88C706.477 1150.38 747.299 1134.12 764.147 1095.64C785.542 1042.88 762.869 985.897 758.851 931.772C756.411 918.107 752.779 907.26 750.838 893.27C750.029 887.441 752.819 877.743 750.838 872.369C751.773 868.871 764.147 853.554 764.147 845.463Z" fill="white"/>
<path fill-rule="evenodd" clip-rule="evenodd" d="M540.411 471.101C541.529 475.888 540.508 481.285 540.695 486.198C540.873 490.893 541.427 495.561 542.243 500.187C550.825 495.673 560.967 495.093 570.747 496.546C583.398 498.426 598.037 502.586 607.952 511.038C610.4 513.126 612.428 515.598 614.126 518.323C616.164 521.593 617.465 525.287 620.696 527.63C625.694 531.255 631.89 532.658 636.695 536.675C641.594 540.77 644.635 546.892 645.278 553.21C645.621 556.573 645.066 559.717 644.428 562.997C643.856 565.948 644.137 567.159 644.914 570C645.524 572.23 644.36 574.761 642.462 575.991C646.531 578.784 650.545 581.663 654.489 584.659C677.468 602.099 696.899 623.839 710.369 649.419L710.694 650.054L711.071 650.818C714.354 657.561 722.943 677.278 724.01 681.711C724.773 684.026 725.512 686.35 726.199 688.688C728.013 694.884 729.551 701.157 730.826 707.482L731.168 709.209C732.203 714.521 733.984 720.813 733.697 726.475C736.68 741.933 739.323 757.456 741.579 773.044C741.874 775.086 741.061 776.745 739.799 777.846C742.816 778.331 745.814 778.927 748.779 779.528L750.501 779.89L751.363 780.08C757.538 781.473 763.633 783.501 767.678 788.688C772.039 794.299 772.128 801.509 767.748 807.159C764.029 811.959 758.598 814.239 752.928 815.679C751.809 815.959 750.678 816.219 749.548 816.448C748.789 816.608 748.289 815.569 749.008 815.169L750.211 814.504L751.853 813.604C756.127 811.248 760.563 808.589 762.928 804.339C766.139 798.569 763.598 793.228 758.088 790.299C753.475 787.843 747.769 787.214 742.647 786.375L740.532 786.026C735.177 785.171 729.714 784.616 724.309 785.228C719.579 785.768 714.789 787.379 710.968 790.268L710.614 790.546L710.248 790.853C706.898 793.756 702.08 800.279 708.399 802.159C713.229 803.587 719.114 803.232 724.19 803.509L724.848 803.549C729.098 803.839 733.539 803.839 737.838 804.349C739.378 804.528 740.899 804.778 742.389 805.129C746.659 806.139 745.189 811.819 741.428 812.219C740.508 812.319 739.569 812.368 738.628 812.389C736.168 814.239 732.768 815.079 729.859 816.228C727.079 817.329 724.289 818.419 721.479 819.489C723.899 819.599 726.319 819.799 728.729 820.099C729.508 820.188 729.518 821.239 728.729 821.319C722.928 821.909 717.128 822.549 711.348 823.358C702.399 824.599 693.508 826.259 684.819 828.788C678.467 830.645 672.193 832.855 666.108 835.436L664.268 836.228L663.508 836.559C657.985 838.953 650.841 841.754 647.668 847.028C646.008 849.778 645.279 854.028 647.619 856.659C650.121 859.492 655.363 859.168 658.868 859.306L659.149 859.319C666.569 859.679 673.998 859.728 681.428 859.469C696.998 858.919 712.579 857.219 727.869 854.228C730.689 853.679 731.909 857.909 729.069 858.569C711.033 862.759 692.8 865.058 674.294 865.165L672.268 865.169C665.059 866.547 657.99 868.602 650.98 870.921L649.579 871.389C645.439 872.788 638.369 874.179 635.928 878.288C634.309 881.018 634.878 882.889 636.479 884.159C639.298 886.389 645.298 886.808 648.218 886.919C659.918 887.358 671.628 887.438 683.338 887.188C689.189 887.058 695.039 886.849 700.889 886.549C706.609 886.249 712.718 885.399 718.418 885.948C720.869 886.188 721.689 889.788 719.029 890.459C711.999 892.239 704.115 892.083 696.853 892.311L696.018 892.339C688.218 892.618 680.409 892.739 672.609 892.719C665.913 892.692 659.22 892.557 652.532 892.311L646.619 892.076L645.572 892.026C642.421 891.857 639.202 891.494 636.409 890.198C633.829 894.518 635.758 900.308 639.088 903.728C642.258 906.989 646.829 908.589 651.208 909.589C651.619 909.679 652.029 909.768 652.439 909.849C662.059 911.808 671.859 911.639 680.859 916.058C688.428 919.778 695.359 925.978 703.838 927.448C711.418 928.768 716.928 925.429 720.968 919.249C721.189 918.909 721.409 918.569 721.619 918.228C724.798 913.108 727.088 907.469 730.439 902.448C732.149 899.889 734.079 897.429 736.439 895.429C737.498 894.518 744.918 890.579 746.079 889.399C751.069 884.278 746.649 873.509 747.949 867.089C749.468 859.618 756.039 856.989 759.979 851.198C767.468 840.179 746.928 829.858 753.069 817.808C753.149 817.659 753.248 817.549 753.378 817.478C753.918 817.188 754.779 817.549 754.729 818.259C754.048 827.239 762.609 833.419 765.699 841.198C769.218 850.049 763.598 855.409 757.859 861.319C750.498 868.909 755.678 877.409 754.039 886.549C753.825 887.747 753.481 888.803 753.034 889.748C754.292 890.528 755.262 891.82 755.475 893.624C757.999 915.024 760.712 936.358 765.142 957.462L766.09 961.945L767.359 967.927C770.516 982.887 773.463 997.908 774.024 1013.2C775.783 1026.11 776.481 1039.12 775.439 1052.12C772.279 1091.67 750.168 1133.05 709.998 1145.19C700.699 1148 690.838 1148.73 681.298 1146.76C678.029 1146.09 673.449 1144.61 669.338 1142.37C669.583 1145 669.777 1147.64 669.858 1150.27C671.212 1151.78 671.825 1154.06 671.053 1156C667.778 1154.93 664.8 1153.22 662.119 1150.89L661.675 1150.49C660.085 1144.58 659.62 1138.12 659.389 1131.9L659.329 1130.13C659.268 1128.41 659.229 1126.72 659.168 1125.07C658.829 1114.8 659.069 1104.51 659.598 1094.25L659.988 1086.7C660.881 1069.08 661.608 1051.5 661.119 1033.84C660.559 1013.51 658.819 993.268 656.639 973.049C655.508 962.618 654.229 952.209 652.918 941.799C651.869 933.419 650.109 924.399 650.079 915.759C643.348 914.319 636.739 911.558 632.598 905.909C628.208 899.919 627.559 892.259 631.458 886.118C627.689 880.959 630.779 876.099 635.439 872.819C628.279 868.808 624.289 857.868 623.229 850.259C622.508 845.038 622.279 837.228 624.508 831.358C621.309 831.469 618.109 831.799 614.909 832.349C611.208 832.999 607.579 833.948 603.998 835.129L602.185 835.728C601.27 836.035 600.241 836.396 599.218 836.819C605.689 847.518 597.378 857.219 586.718 859.989C584.689 860.518 582.619 860.889 580.529 861.188C575.819 861.839 571.008 862.038 566.338 862.469C557.399 863.288 548.409 864.459 539.439 864.839C537.468 864.929 536.199 864.009 535.598 862.728C535.579 862.709 535.569 862.698 535.569 862.679C535.359 862.339 535.218 861.978 535.168 861.599C535.199 861.629 535.239 861.649 535.268 861.669C534.838 859.268 536.279 856.349 539.439 855.999C552.389 854.538 565.518 854.469 578.508 853.399L579.34 853.329C583.418 852.978 588.22 852.331 591.449 849.749C594.449 847.349 594.718 844.228 593.518 841.409C593.498 841.478 593.479 841.558 593.468 841.629C593.378 842.188 592.609 842.169 592.359 841.778C591.609 840.639 591.418 839.518 591.609 838.438C590.708 837.399 589.619 836.478 588.439 835.768C583.208 832.589 576.329 831.719 570.378 830.778C563.869 829.749 557.309 829.278 550.739 828.969C537.809 828.358 524.838 829.409 512.119 831.728C511.588 831.819 511.369 831.079 511.889 830.909C516.848 829.268 521.918 827.889 527.048 826.799C526.928 826.778 526.809 826.759 526.689 826.728C526.239 826.618 525.918 826.069 526.069 825.629C526.088 825.558 526.119 825.489 526.149 825.429C523.968 824.429 523.059 821.069 525.699 819.709C533.928 815.459 543.588 813.538 552.619 811.788C561.289 810.118 570.048 808.948 578.819 807.909C593.649 806.169 609.819 806.209 624.088 801.528L624.674 801.331C630.485 799.327 637.422 795.266 637.829 788.409C638.428 778.038 623.018 780.739 616.598 780.989C599.029 781.659 581.479 782.879 563.989 784.759C560.418 785.139 556.848 785.528 553.279 785.929C547.809 786.538 542.329 787.179 536.869 787.858C533.819 788.239 530.699 788.739 527.559 789.219C526.579 789.459 525.619 789.629 524.659 789.719C524.588 789.728 524.529 789.709 524.479 789.679C519.909 790.319 515.319 790.808 510.859 790.669C510.348 790.659 510.029 789.858 510.569 789.618C516.329 787.179 522.739 785.739 529.168 784.608C533.149 781.639 537.958 779.259 541.909 776.959C547.329 773.799 553.539 769.149 559.689 767.259C562.458 765.079 565.598 763.329 568.489 762.139C567.659 760.849 567.359 759.058 567.508 757.549C568.059 752.139 572.389 749.118 577.389 748.058C578.939 747.739 580.729 747.499 582.639 747.409C582.678 746.399 583.128 745.409 584.128 744.669L584.423 744.445L584.632 744.278C587.989 741.552 594.652 733.879 586.628 733.319C582.369 733.018 578.768 736.139 575.378 738.249C568.338 742.639 561.529 742.858 553.489 741.768L549.874 741.249L549.273 741.168C543.461 740.405 537.564 740.3 534.319 746.228C530.838 752.569 529.619 758.349 522.598 761.839C515.889 765.169 508.439 765.829 502.279 770.409C495.678 775.308 490.718 782.188 485.319 788.288C473.409 801.728 459.779 813.599 445.739 824.759L443.241 826.738C430.311 836.956 416.965 847.016 402.489 854.889C402.389 854.938 402.288 854.959 402.199 854.959C401.809 854.919 401.518 854.419 401.869 854.079C418.779 837.649 438.559 824.329 455.928 808.339C463.628 801.249 470.958 793.788 478.008 786.049C484.168 779.259 489.628 771.629 496.809 765.849C500.298 763.038 504.069 760.889 508.288 759.389C512.229 757.978 516.649 757.278 520.279 755.118C527.389 750.899 526.699 740.899 533.809 736.358C539.905 732.463 547.331 733.886 554.091 734.81L554.899 734.919C559.279 735.499 563.809 735.989 567.989 734.259C572.128 732.549 575.458 729.349 579.628 727.649C585.439 725.259 593.678 725.829 596.659 732.219C599.508 738.319 595.619 743.839 591.079 747.889C597.268 749.009 602.699 751.999 603.159 758.099C607.699 757.948 612.229 757.788 616.768 757.629C632.579 757.079 648.468 756.018 664.289 756.299C663.928 754.688 663.768 753.028 663.748 751.339C663.739 750.399 663.779 749.459 663.848 748.499C663.968 746.858 665.048 745.868 666.649 745.698L670.222 745.316L671.418 745.198C678.112 744.565 685.598 744.432 690.699 748.858C693.439 751.249 695.649 756.749 694.309 760.419C697.428 761.489 700.399 762.858 703.109 764.589C708.479 762.788 714.119 762.989 719.518 764.868L720.159 765.097C723.997 766.506 729.438 769.175 731.524 772.983C726.461 738.665 719.638 704.64 711.061 671.026C705.586 657.602 698.668 644.771 690.279 632.929C669.149 603.089 638.708 582.569 611.369 558.979C608.956 561.633 606.358 564.159 603.928 566.59L602.898 567.627C597.948 572.64 592.785 577.437 587.508 582.102C576.479 591.852 564.87 600.851 553.344 609.994C530.109 628.427 509.102 648 491.624 672.065C491.31 672.499 490.439 672.246 490.682 671.669C502.67 643.172 527.522 621.507 550.098 601.404C561.97 590.833 574.12 580.517 585.535 569.447C590.856 564.286 596.012 558.947 600.875 553.35L602.085 551.946C605.265 548.224 612.711 536.86 617.632 545.059C618.663 546.774 618.618 548.968 617.632 550.685C616.234 553.125 614.459 555.452 612.518 557.687C619.418 561.44 626.176 565.403 632.786 569.598C632.406 567.577 632.501 565.343 632.854 563.108L632.969 562.398L633.451 559.626C634.141 555.539 634.496 551.74 631.904 547.755C628.662 542.769 622.549 541.214 617.679 538.333C612.069 535.013 609.139 530.571 606.135 524.933C600.382 514.14 587.385 509.812 576.214 506.34L574.809 505.904C564.487 502.705 553.321 500.993 543.001 504.067C543.969 508.573 545.236 513.015 546.819 517.342C548.504 521.948 552.353 527.069 551.959 532.044C551.687 535.487 547.557 539.167 544.13 536.536C539.276 532.812 538.306 526.747 537.005 520.969C535.747 515.381 534.944 509.657 534.602 503.94C534.273 498.43 534.53 492.924 535.209 487.452L535.73 483.433L535.857 482.499C536.424 478.437 537.267 474.173 539.553 470.989C539.773 470.683 540.311 470.676 540.411 471.101ZM399.582 448.258C399.655 448.583 399.706 448.904 399.752 449.225C400.086 450.595 400.211 451.912 400.17 453.235C400.19 453.712 400.155 454.19 400.066 454.663C399.887 456.22 399.512 457.818 399.005 459.565C397.926 463.282 396.69 466.954 395.309 470.571C392.579 477.724 389.356 484.549 385.372 491.091C378.175 502.908 369.026 512.717 358.24 521.196C360.287 522.885 362.288 524.642 364.293 526.367C373.984 534.707 383.413 543.425 392.546 552.373C408.765 568.266 424.658 584.454 440.178 601.03C447.833 609.205 455.346 617.487 462.818 625.825L463.063 626.105L463.327 626.421C465.981 629.629 471.285 637.282 475.242 636.053C477.24 635.431 479.344 632.45 480.706 631.028L483.214 628.412C484.048 627.537 484.877 626.658 485.692 625.766C500.288 609.774 514.099 593.168 527.067 575.811C533.395 567.342 539.512 558.714 545.407 549.936C548.437 545.423 551.411 540.87 554.325 536.279C557.143 531.839 559.422 527.067 563.575 523.753C566.623 521.321 570.846 523.551 570.078 527.538C568.868 533.817 564.522 539.127 561.1 544.434C557.663 549.767 554.145 555.048 550.548 560.273C543.625 570.333 536.402 580.181 528.921 589.831C522.478 598.141 515.757 606.238 508.854 614.171L506.967 616.331C499.542 624.796 492.254 633.782 484.049 641.508C476.702 648.427 468.678 646.411 461.985 639.687C453.52 631.186 445.661 621.992 437.516 613.181C421.24 595.573 404.794 578.099 388.178 560.811L382.715 555.121C376.347 548.473 370.004 541.783 363.827 534.972L363.03 534.083C355.985 526.159 348.822 516.232 338.807 512.203C338.083 511.912 338.349 510.884 339.131 511.028C345.542 512.213 350.894 515.443 355.874 519.302C360.35 511.895 364.344 504.087 367.826 496.101L365.592 495.131C349.608 488.224 331.592 481.26 314.432 482.38C307.516 482.83 300.137 485.45 295.362 490.642C291.038 495.345 288.879 501.687 284.911 506.696C280.366 512.433 274.438 515.015 267.163 515.248L263.625 515.355C259.556 515.487 255.655 515.7 251.528 516.596C240.346 519.02 228.557 522.953 219.179 529.67C215.777 532.106 212.265 535.456 210.62 539.147C208.989 542.804 208.52 547.083 208.361 551.03C208.284 552.954 208.861 555.495 208.379 557.336C208.434 557.125 208.459 557.237 208.466 557.457C209.965 558.639 210.986 560.604 211.097 562.562C220.445 557.69 230.122 553.42 239.987 549.571C250.971 545.286 262.296 541.852 273.623 538.6C284.709 535.419 296.313 534.103 307.614 531.835C309.053 531.546 309.553 533.489 308.212 534.005C296.334 538.567 284.841 543.975 272.864 548.267C260.893 552.558 249.011 557.202 237.387 562.364C214.919 572.345 193.216 585.045 175.515 602.276C158.227 619.106 144.892 639.551 132.49 660.107C120 680.808 108.853 702.263 98.9176 724.302C79.2636 767.901 64.5256 813.742 54.8226 860.566C45.3796 906.132 40.1036 953.325 41.8606 999.898C42.6946 1022.02 45.3966 1044.15 51.6806 1065.43C54.6826 1075.59 58.4406 1085.52 63.1886 1095C68.1956 1105 74.9416 1113.9 79.5136 1124.07C79.8896 1124.91 80.0336 1125.71 80.0126 1126.46C99.5126 1143.35 130.035 1131.97 151.139 1121.88C199.699 1098.66 247.359 1073.25 292.659 1044.09C337.369 1015.31 379.739 983.188 421.109 949.849C417.909 946.549 415.088 942.849 412.609 939.499C407.489 932.579 403.639 924.739 400.989 916.558C397.889 906.978 396.928 896.728 397.809 886.719L398.059 883.888C398.901 874.436 399.875 864.844 401.949 855.608C401.968 855.489 402.059 855.438 402.159 855.438C402.258 855.438 402.359 855.499 402.399 855.608C407.989 873.499 408.439 892.728 414.718 910.389C417.248 917.489 421.168 924.349 425.869 930.239C427.899 932.788 430.279 934.999 432.708 937.159C432.869 936.058 433.088 934.969 433.418 933.899L433.68 933.051C434.005 932.023 434.408 930.879 434.968 929.868C434.178 929.639 433.409 929.389 432.649 929.108C432.048 928.889 431.918 927.919 432.649 927.759C434.639 927.299 436.689 927.069 438.779 926.969C439.109 926.919 439.428 926.909 439.748 926.929C443.659 926.808 447.639 927.089 451.409 927.149C457.939 927.249 464.449 927.368 470.968 927.659C483.449 928.198 497.538 930.589 509.819 927.688C520.979 925.049 531.979 917.608 540.928 910.608C548.748 904.489 554.779 897.219 561.268 889.969C560.802 890.042 560.339 890.111 559.879 890.175L555.694 890.748C550.412 891.454 544.141 892.007 539.949 889.469C538.348 888.499 538.809 886.299 540.439 885.698C544.718 884.129 550.029 885.429 554.588 885.209C558.168 885.038 561.789 884.659 565.319 883.919C566.479 883.679 567.628 883.399 568.768 883.069C577.128 880.659 586.949 872.179 580.309 862.919C580.059 862.569 580.338 862.249 580.678 862.188C580.829 862.159 580.989 862.188 581.119 862.299C588.678 868.558 584.748 879.778 577.598 884.589C575.139 886.249 572.359 887.409 569.479 888.259C570.029 889.268 570.128 890.509 569.468 891.688C563.869 901.669 554.389 910.438 545.508 917.489C536.389 924.728 525.869 931.558 514.559 934.759C501.498 938.438 487.149 935.669 473.899 934.499C466.718 933.868 459.559 933.118 452.389 932.288C450.468 932.069 448.479 931.899 446.458 931.709C448.359 934.209 449.869 937.089 450.859 938.819C454.079 944.438 451.109 951.839 444.869 953.558C444.218 953.739 443.548 953.839 442.889 953.858C441.208 957.228 437.208 959.709 433.508 958.438C431.899 957.889 430.348 957.139 428.859 956.239C405.588 976.679 381.088 995.858 355.889 1013.84C309.159 1047.18 260.178 1077.63 209.389 1104.4C197.949 1110.43 186.421 1116.3 174.796 1121.94L164.79 1126.76C153.715 1132.09 142.381 1137.39 130.619 1140.7C128.326 1141.34 125.925 1141.86 123.465 1142.26C123.433 1142.48 123.425 1142.69 123.439 1142.9C121.228 1143.19 119.298 1143.24 117.65 1143.03L117.275 1142.98C102.858 1143.99 87.4366 1140.47 78.1616 1129.94C76.6156 1131.02 74.3616 1131.14 72.3726 1129.58C62.3696 1121.73 56.4066 1109.78 51.1736 1098.37C45.8676 1086.8 41.7086 1074.74 38.6526 1062.38C32.5486 1037.7 30.1276 1012.25 30.0001 986.864C29.5386 889.045 54.0366 790.367 96.5886 702.548C107.381 680.275 119.277 658.418 132.483 637.481C145.653 616.601 160.946 597.196 180.531 581.968C186.163 577.59 192.022 573.587 198.065 569.899C194.009 567.889 192.398 562.776 192.114 558.234C191.484 548.147 192.686 536.526 198.592 528.015C206.877 516.075 221.708 508.713 235.46 505.133C242.639 503.265 250.065 502.176 257.47 501.808C261.288 501.617 265.255 502.245 269.027 501.833C272.355 501.471 274.413 499.485 276.327 496.874C281.23 490.181 284.422 483.161 291.455 478.255C298.671 473.222 308.022 471.296 316.715 471.818C326.842 472.427 336.081 476.417 345 481.002C353.05 485.14 360.864 489.724 368.479 494.614C369.875 491.343 371.19 488.047 372.413 484.74C374.785 478.328 376.848 471.712 378.522 465.084C380.219 458.363 379.971 449.487 385.097 444.433C389.554 440.04 398.137 441.765 399.582 448.258ZM745.061 896.722L745.025 896.73C734.657 902.874 729.699 918.228 724.819 924.938C725.218 927.188 725.498 929.478 726.048 931.608C727.309 936.499 728.958 941.349 730.869 946.009C734.229 954.239 738.439 962.079 742.329 970.058C745.459 976.475 748.526 983.01 750.912 989.765C750.653 990.024 750.414 990.331 750.211 990.712C747.623 995.559 745.597 994.606 740.822 993.548L740.819 993.538C738.088 985.179 734.149 977.329 730.609 969.308L729.748 967.349L728.896 965.389C725.938 958.525 723.239 951.597 721.668 944.239C720.668 939.549 720.258 934.728 720.199 929.938C717.609 932.069 714.498 933.599 710.579 934.188C702.191 935.455 694.595 930.202 687.761 925.987L686.22 925.045C681.942 922.442 677.7 920.037 672.768 918.808C667.168 917.409 661.378 917.409 655.689 916.698C655.008 916.608 654.319 916.518 653.628 916.409C655.848 923.759 656.878 931.739 658.199 939.099C660.039 949.419 661.539 959.829 662.979 970.209C665.779 990.329 667.729 1010.61 668.718 1030.9C669.676 1050.54 669.193 1070.12 668.483 1089.76L668.128 1099.33C667.844 1107.13 667.61 1114.94 667.748 1122.74C668.128 1122.77 668.508 1122.83 668.889 1122.92C672.829 1123.84 675.518 1127.86 679.119 1129.65C686.718 1133.43 695.899 1133.38 703.989 1131.47C722.389 1127.11 737.689 1114.27 747.768 1098.58C759.869 1079.76 764.309 1057.61 764.168 1035.45C764.001 1010.51 759.962 986.663 754.34 962.586L753.979 961.049C749.246 940.99 746.282 896.912 745.061 896.722ZM229.82 846.401C229.925 853.109 227.197 860.284 225.698 866.802C224.084 873.825 222.474 880.848 220.842 887.868L219.374 894.157C218.152 899.399 216.947 904.644 215.867 909.917C214.979 914.252 214.607 919.965 213.152 924.744C230.459 917.744 247.793 910.815 265.098 903.838C286.418 895.239 307.838 886.878 329.208 878.418C350.498 869.998 371.668 860.418 393.389 853.218C398.559 851.498 402.059 859.748 397.108 862.037C375.048 872.268 351.708 880.278 329.108 889.239L296.416 902.217C266.447 914.108 236.458 925.942 206.318 937.368C185.788 945.149 165.338 953.159 144.678 960.548C134.828 964.069 124.889 967.399 115.088 971.048C106.878 974.108 97.998 978.649 94.958 987.468C94.798 987.928 94.168 987.739 94.238 987.268C95.468 978.728 101.809 973.388 108.958 969.348C118.447 963.973 128.869 960.061 138.885 955.75L140.248 955.159C160.701 946.239 181.319 937.68 201.998 929.264C201.793 928.764 201.672 928.228 201.663 927.668L201.604 927.684C201.228 923.861 202.981 920.452 204.242 916.896L207.859 906.692C210.269 899.897 212.431 893.018 214.658 886.162C216.987 878.996 219.338 871.837 221.685 864.677C223.673 858.612 225.009 851.383 228.41 845.962C228.82 845.309 229.95 845.676 229.82 846.401ZM628.109 831.319L627.851 832.621C627.55 834.144 627.269 835.679 627.199 837.219C626.998 841.249 627.458 845.278 628.529 849.169C629.579 853.018 631.048 856.739 633.139 860.149C635.119 863.358 637.989 865.879 639.819 869.169C640.008 869.518 640.128 869.868 640.178 870.209C640.878 869.919 641.569 869.659 642.239 869.448C647.819 867.679 653.518 866.198 659.298 865.089L658.381 865.027L657.789 864.979C648.132 864.162 639.02 861.003 640.989 849.728C642.102 843.354 647.105 839.08 652.467 836.051L653.139 835.679C653.428 835.518 653.729 835.358 654.018 835.219C649.168 834.399 645.649 833.389 639.699 832.389C635.838 831.739 631.968 831.379 628.109 831.319ZM186.918 692.436C196.414 711.622 203.558 732.022 208.948 752.719C211.55 762.714 213.759 772.808 215.534 782.982L216.117 786.379L216.449 788.223C218.107 797.291 220.214 807.116 217.778 815.964C216.983 818.855 212.183 819.999 210.839 816.872C206.785 807.432 207.355 796.581 206.18 786.479C204.945 775.879 203.26 765.329 201.16 754.866C197.126 734.762 191.465 715.128 185.154 695.642L184.45 693.477C183.914 692.034 186.248 691.083 186.918 692.436ZM551.918 778.268C549.088 779.599 546.258 780.819 543.758 782.038C543.569 782.139 543.369 782.228 543.168 782.329C545.998 781.849 548.838 781.399 551.678 780.978C551.649 780.058 551.739 779.149 551.918 778.268ZM662.652 768.659C662.227 768.797 661.851 769.02 661.524 769.326L661.365 769.486C660.975 769.849 660.699 770.278 660.538 770.773C660.288 771.251 660.172 771.765 660.193 772.315L660.336 773.378C660.526 774.056 660.869 774.643 661.365 775.143L662.174 775.768C662.72 776.084 663.303 776.263 663.924 776.305L664.193 776.315L665.002 776.315C665.465 776.299 665.901 776.185 666.31 775.97C666.735 775.832 667.111 775.609 667.437 775.303L667.597 775.143C667.988 774.78 668.263 774.351 668.424 773.856C668.639 773.447 668.753 773.011 668.769 772.548L668.769 772.315L668.626 771.251C668.459 770.657 668.176 770.133 667.775 769.677L667.597 769.486L666.788 768.86C666.242 768.544 665.658 768.365 665.037 768.324L664.769 768.315H664.193C663.642 768.294 663.128 768.409 662.652 768.659ZM636.633 767.306C634.508 767.696 633.303 770.272 633.84 772.225C634.434 774.387 636.489 775.349 638.553 775.053L638.76 775.02C641.178 774.575 643.547 774.747 645.85 775.596C647.876 776.344 650.233 774.759 650.77 772.802C651.384 770.568 650.011 768.632 647.976 767.882C644.326 766.534 640.411 766.61 636.633 767.306ZM215.322 625.251C220.16 632.341 223.181 641.768 226.162 649.871L226.46 650.677C229.628 659.193 232.684 667.776 235.534 676.405C241.223 693.63 248.637 711.655 250.007 729.851C250.26 733.209 245.121 734.555 243.631 731.579C239.35 723.022 237.048 714.102 234.515 704.928C232.099 696.179 229.582 687.46 227.064 678.74C224.547 670.025 222.112 661.284 219.633 652.558C217.222 644.069 213.865 634.63 213.313 625.795C213.241 624.647 214.766 624.435 215.322 625.251ZM324.531 568.165C330.99 572.648 336.28 579.205 341.746 584.813C347.291 590.503 352.762 596.246 358.182 602.056C367.239 611.766 376.132 621.635 385.317 631.227C403.621 650.342 424.328 667.932 449.59 676.916C455.703 679.09 453.025 688.9 446.898 686.68C421.059 677.312 399.654 659.991 380.773 640.396C370.994 630.248 362.021 619.404 353.272 608.367C349.178 603.202 345.114 598.022 341.108 592.79L338.712 589.645C333.675 582.999 327.512 576.375 323.826 568.871C323.619 568.449 324.073 567.848 324.531 568.165Z" fill="black"/>
<path fill-rule="evenodd" clip-rule="evenodd" d="M630.529 304.003C628.376 285.088 631.162 245.552 631.349 243.15C632.529 227.965 625.414 168.002 611.964 173.527C589.402 155.666 559.351 151.722 531.251 149.838C472.884 145.924 410.791 154.909 365.721 194.189C343.432 214.588 321.733 244.257 323.477 275.149C303.226 304.431 274.677 344.598 299.909 378.831C308.485 389.768 322.117 393.841 332.891 402.124C354.563 419.604 368.159 444.69 390.036 462.066C447.997 514.149 546.414 525.029 603.36 465.789C647.395 422.885 640.275 358.699 632.529 304.003C627.322 267.23 634.729 340.904 630.529 304.003Z" fill="white"/>
<path fill-rule="evenodd" clip-rule="evenodd" d="M453.28 69.6251C468.89 66.4751 484.919 64.5151 500.86 65.1051L502.089 65.1528C514.083 65.6322 529.273 66.6926 539.736 73.6671C540.338 73.0631 541.306 72.7531 542.184 73.1721C554.618 79.1071 568.294 83.3981 581.386 87.6621C594.418 91.9051 607.938 94.7061 621.597 95.8351C626.736 96.2601 631.134 101.809 627.88 106.786C627.106 107.972 626.352 109.17 625.601 110.371C626.857 110.24 628.113 110.105 629.369 109.978C633.502 109.562 637.631 113.973 637.386 117.997C637.233 120.528 636.96 123.029 636.556 125.5C638.13 125.467 639.695 125.703 641.207 126.342C648.863 129.575 648.33 138.694 647.757 145.632C646.963 155.26 643.362 165.458 636.676 172.664C641.668 177.849 645.202 184.041 647.31 191.395C648.839 196.765 649.69 202.485 649.27 208.075L649.136 209.749C648.617 215.815 647.584 222.531 643.22 226.895C640.98 229.145 638.22 229.965 635.589 229.705C637.18 243.685 638.2 257.745 639.16 271.755L639.61 278.451C641.752 310.831 643.361 343.422 642.94 375.855C642.549 406.165 636.56 435.585 617.97 460.195C601.039 482.605 576.73 499.125 549.23 505.405C534.41 508.795 519.28 509.035 504.28 506.875C497.009 505.825 489.69 504.215 482.789 501.675C475.15 498.855 469.66 494.705 464.52 488.485C462.089 485.535 463.259 479.255 468.1 479.845C475.421 480.733 482.105 481.803 489.124 483.968L490.129 484.285C497.12 486.525 504.36 488.195 511.669 488.905C526.64 490.355 541.839 488.895 556.18 484.355C579.53 476.955 599.64 460.465 612.53 439.745C627.83 415.185 629.56 387.305 629.339 359.065C629.102 328.077 628.094 297.07 626.449 266.114L626.169 260.955C625.299 245.025 624.459 229.085 623.72 213.145C623.49 208.145 623.14 203.105 622.509 198.115C616.74 194.735 611.57 190.075 608.2 184.325C601.43 187.125 594.31 189.145 587.759 190.755C572.585 194.487 556.831 195.393 541.386 193.056C537.22 194.777 532.971 196.29 528.657 197.592C527.491 198.109 526.325 198.617 525.16 199.115C514.759 203.565 504.209 207.335 493.23 210.095L490.533 210.768C484.755 212.192 478.479 213.595 472.33 214.035C471.32 214.425 470.23 214.755 469.039 215.045C463.44 216.405 457.629 216.835 451.89 216.355C446.299 215.885 442.259 210.235 445.339 204.945C447.589 201.085 449.86 197.235 452.15 193.395C444.18 196.715 435.95 199.475 427.65 201.815C419.27 204.175 410.77 206.165 402.259 207.995C397.709 208.965 393.14 209.825 388.6 210.795C385.35 211.485 380.36 211.845 377.709 213.985C374.78 216.335 373.95 221.815 372.839 225.195C371.379 229.585 370.009 233.995 368.759 238.455C366.27 247.355 364.23 256.385 362.65 265.505C361.07 274.635 360.009 283.855 359.419 293.105C358.83 302.345 359.089 311.645 358.14 320.845C357.629 325.725 352.39 328.235 348.52 324.825C348.066 324.425 347.608 324.021 347.155 323.612L346.48 322.995C343.169 319.995 339.959 316.815 337.31 313.235C336.83 312.575 336.37 311.885 335.94 311.185C335.87 311.185 335.81 311.165 335.74 311.115L335.005 310.562C326.918 304.543 313.406 296.694 305.52 306.695C303.007 309.881 301.72 313.938 300.653 317.851L298.779 324.856C297.567 329.428 296.426 334.026 295.759 338.705C294.249 349.185 295.009 361.265 302.22 369.665C305.1 373.025 309.07 375.425 313.499 376.055C315.97 376.395 318.41 375.975 320.86 375.665C323.35 375.355 325.749 375.855 328.24 375.615C332.2 375.225 333.93 379.965 332.45 382.945C331.65 384.545 330.709 385.925 329.64 387.095C330.499 387.835 331.32 388.635 332.11 389.475C334.45 390.225 336.549 391.835 338.12 393.965C339.39 395.685 340.049 397.555 340.16 399.525C340.299 400.015 340.419 400.515 340.53 401.025L342.675 404.507C343.147 405.271 343.617 406.025 344.089 406.765C349.549 415.365 355.61 422.645 363.14 429.505C370.39 436.105 378.259 442.015 385.07 449.095L385.872 449.936C392.222 456.627 398.915 464.726 396.43 474.455C395.79 476.955 392.299 478.755 390.02 477.065C382.69 471.625 378.999 463.005 372.78 456.405C366.379 449.605 359.289 443.495 352.87 436.715C346.799 430.315 342.009 423.065 338.4 415.085C336.959 416.675 334.86 417.805 331.95 418.245C326.95 418.995 322.289 416.065 320.11 411.735C318.709 412.355 317.28 412.915 315.839 413.355C308.259 415.675 303.49 407.245 306.35 401.015C307.879 397.675 309.789 394.775 312.16 392.335C304.749 391.315 297.209 387.485 292.339 382.705C280.12 370.695 278.44 352.645 281.19 336.595C282.65 328.085 285.169 319.475 288.44 311.485C289.009 310.095 289.62 308.695 290.289 307.315C289.919 307.305 289.539 307.145 289.299 306.835C287.089 303.815 284.4 301.345 282.759 297.965C281.249 294.865 279.57 291.725 278.379 288.495C275.93 281.885 274.73 274.425 273.93 267.435C272.28 253.125 272.919 238.905 275.11 224.685C278.839 200.465 287.847 177.287 301.118 156.949C300.395 156.569 299.703 156.111 299.058 155.569L298.739 155.291L298.221 154.823C294.434 151.396 294.761 144.973 298.221 141.502L299.314 140.407C300.697 139.032 301.891 137.943 304.126 136.446C304.456 136.225 304.793 136.017 305.134 135.823C303.964 133.661 303.558 131.133 304.373 128.344C307.213 118.628 321.193 118.972 330.054 123.209C339.857 114.46 350.727 106.865 362.509 100.715C390.57 86.0751 422.299 75.8651 453.28 69.6251ZM308.23 325.525C313.47 323.815 320.43 327.405 325.14 329.565C331.11 332.305 336.19 336.355 341.11 340.635C343.56 342.775 343.999 346.275 343.39 349.265C343.329 349.565 343.27 349.875 343.199 350.185C342.549 353.375 338.989 355.885 335.839 355.795C329.249 355.615 326.11 349.925 322.379 345.105C321.94 345.885 321.39 346.605 320.709 347.145L320.249 347.505C318.701 348.684 316.995 349.626 314.949 349.535C313.499 349.465 312.11 349.095 310.829 348.425C307.629 346.735 306.22 342.595 307.089 339.225C307.629 337.105 308.869 335.445 310.489 334.295L309.885 333.882C308.593 332.983 307.415 332.035 306.496 330.636L306.289 330.305H306.369C305.369 328.585 306.02 326.245 308.23 325.525Z" fill="black"/>
<path fill-rule="evenodd" clip-rule="evenodd" d="M529.587 434.927C522.864 432.184 516.866 427.61 512.481 421.766C510.957 419.735 510.561 417.59 510.881 415.628C511.241 413.421 512.546 411.422 514.326 410.081C516.112 408.735 518.345 408.072 520.504 408.41C522.381 408.704 524.248 409.731 525.727 411.862L526.035 412.288C528.642 415.815 532.04 418.709 535.91 420.574C539.641 422.372 543.814 423.211 548.132 422.723C556.356 421.794 562.024 417.346 568.049 411.307C568.796 410.544 569.543 409.758 570.294 408.959C570.768 408.234 571.426 407.769 572.157 407.524C572.968 407.253 573.886 407.269 574.726 407.562C575.537 407.845 576.262 408.381 576.747 409.095C577.209 409.773 577.471 410.61 577.386 411.574C576.835 417.833 573.562 423.419 568.914 427.805C563.752 432.677 556.909 436.047 550.466 437.229C543.368 438.531 536.136 437.598 529.587 434.927V434.927ZM553.814 338.367C561.366 342.957 572.872 353.66 564.748 365.04C555.186 375.073 541.418 363.569 534.634 358.366C528.343 354.334 521.275 364.704 527.112 369.413C576.136 405.708 596.031 339.567 557.634 332.97C553.406 332.243 551.836 336.947 553.814 338.367ZM465.963 296.146C466.798 285.79 482.57 283.438 484.139 293.686C485.544 302.866 483.89 311.299 479.755 319.564C475.804 327.46 465.874 323.777 465.123 316.587C464.116 306.949 465.444 302.589 465.963 296.146ZM586.027 291.561C588.226 288.681 591.401 286.715 595.205 287.826C607.09 291.299 603.587 308.172 599.413 316.385C597.145 320.845 589.814 321.976 586.501 318.049C581.101 311.645 578.515 298.856 585.38 292.548C585.566 292.222 585.773 291.893 586.027 291.561ZM479.588 250.83L481.465 250.502C487.273 249.497 494.494 248.532 498.603 253.201C500.782 255.677 501.532 260.279 498.603 262.649C493.451 266.819 487.755 265.203 481.581 265.556C476.493 265.848 471.603 266.69 466.702 268.091C455.95 271.164 447.189 276.774 438.006 282.934C436.801 283.742 435.571 282.201 436.146 281.074C441.447 270.691 451.72 262.162 462.01 256.963C467.502 254.188 473.512 251.886 479.588 250.83ZM575.193 246.179L576.63 246.473C592.267 249.742 612.583 256.271 619.988 271.631C620.271 273.803 619.972 274.268 619.73 274.572L619.649 274.673C619.45 274.933 619.29 275.291 618.349 275.587C618.087 275.525 617.824 275.459 617.557 275.389C614.163 274.499 611.477 273.274 608.877 272.002L606.058 270.613C602.788 269.01 599.488 267.465 595.992 266.324C588.53 263.89 580.854 262.175 573.06 261.26C571.37 261.061 569.744 260.491 568.46 259.514C567.242 258.587 566.311 257.302 565.887 255.595C565.337 253.386 565.495 251.714 566.68 249.721C567.572 248.224 568.847 247.187 570.311 246.591C571.804 245.984 573.503 245.841 575.193 246.179Z" fill="black"/>
<path fill-rule="evenodd" clip-rule="evenodd" d="M640.311 342.458C628.17 355.003 607.902 358.603 591.749 351.875C550.273 334.546 570.574 280.496 602.561 265.981C606.557 264.985 611.894 262.622 616.761 262.086C617.201 261.87 618.159 262.495 619.32 261.904C654.591 265.842 662.623 320.594 640.311 342.458M506.533 345.669C492.916 363.73 467.6 369.302 446.916 360.906C406.054 344.814 420.547 296.885 448.504 278.095C507.561 255.904 531.948 312.368 506.533 345.669M417.953 305.651C417.915 305.633 417.877 305.624 417.838 305.606C418.054 305.511 418.27 305.416 418.485 305.319C418.415 305.502 418.339 305.683 418.271 305.866C418.165 305.793 418.072 305.708 417.953 305.651M668.423 286.128C665.089 286.135 660.273 286.683 657.513 288.996C650.707 266.043 625.585 244.8 603.737 260.29C586.532 265.823 573.765 278.094 566.509 294.408C553.426 286.626 532.854 289.949 521.509 300.24C514.079 275.689 495.793 267.092 474.028 265.823C450.272 261.932 426.594 285.003 419.206 303.511C413.063 302.812 403.884 300.857 398.105 304.648C360.598 294.812 295.023 289.389 287.398 294.854C281.964 296.939 278.982 309.765 286.572 310.457C293.186 309.518 285.8 301.059 292.467 300.136C327.99 297.934 362.475 305.088 397.622 308.09C400.76 312.311 410.899 313.723 416.308 312.027C407.789 343.423 426.179 364.783 453.734 371.181C496.401 380.982 533.522 342.814 522.365 303.114C535.29 296.684 550.157 296.96 564.237 300.347C540.709 386.937 680.166 383.052 658.385 291.963C672.88 299.173 676.028 287.583 668.423 286.128" fill="black"/>
</svg>
